# MagicaVoxel @ Ephtracy

# group
o 

# material
mtllib 210503 colorrobotv2-0.mtl
usemtl palette

# normals
vn -1 0 0
vn 1 0 0
vn 0 0 1
vn 0 0 -1
vn 0 -1 0
vn 0 1 0

# texcoords
vt 0.494141 0.5
vt 0.748047 0.5
vt 0.767578 0.5
vt 0.775391 0.5

# verts
v -0.3 0.3 0.3
v -0.3 0.3 0.1
v -0.3 0.3 -0.3
v -0.3 0.3 -0.5
v -0.3 0.4 0.3
v -0.3 0.4 0.2
v -0.3 0.4 0.1
v -0.3 0.4 -0.1
v -0.3 0.5 0.3
v -0.3 0.5 0.2
v -0.3 0.5 0.1
v -0.3 0.5 -0.1
v -0.3 0.6 0.3
v -0.3 0.6 0.2
v -0.3 0.6 -0.3
v -0.3 0.6 -0.5
v -0.3 0.7 0.3
v -0.3 0.7 0.2
v -0.3 0.7 0.1
v -0.3 0.8 0.3
v -0.3 0.8 0.2
v -0.2 0.2 0.3
v -0.2 0.2 0.2
v -0.2 0.2 0.1
v -0.2 0.3 0.3
v -0.2 0.3 0.2
v -0.2 0.3 0.1
v -0.2 0.3 -0.3
v -0.2 0.4 0.1
v -0.2 0.4 -0.1
v -0.2 0.4 -0.2
v -0.2 0.5 0.1
v -0.2 0.5 -0.1
v -0.2 0.5 -0.2
v -0.2 0.6 0.1
v -0.2 0.6 -0.1
v -0.2 0.6 -0.3
v -0.1 0.2 0.1
v -0.1 0.2 2.98023e-08
v -0.1 0.3 0.1
v -0.1 0.3 2.98023e-08
v 0.1 0.2 0.3
v 0.1 0.2 0.2
v 0.1 0.2 2.98023e-08
v 0.1 0.3 0.3
v 0.1 0.3 0.2
v 0.1 0.3 2.98023e-08
v 0.1 0.3 -0.3
v 0.1 0.3 -0.4
v 0.1 0.4 0.3
v 0.1 0.4 0.2
v 0.1 0.5 0.3
v 0.1 0.5 0.2
v 0.1 0.5 -0.1
v 0.1 0.5 -0.2
v 0.1 0.6 0.3
v 0.1 0.6 0.2
v 0.1 0.6 0.1
v 0.1 0.6 -0.1
v 0.1 0.6 -0.2
v 0.1 0.6 -0.3
v 0.1 0.6 -0.4
v 0.1 0.7 0.3
v 0.1 0.7 0.2
v 0.1 0.7 0.1
v 0.1 0.8 0.3
v 0.1 0.8 0.2
v 0.2 0.3 -0.4
v 0.2 0.3 -0.5
v 0.2 0.6 -0.4
v 0.2 0.6 -0.5
v -0.1 0.3 -0.4
v -0.1 0.3 -0.5
v -0.1 0.6 -0.4
v -0.1 0.6 -0.5
v -2.98023e-08 0.2 0.3
v -2.98023e-08 0.2 0.2
v -2.98023e-08 0.2 2.98023e-08
v -2.98023e-08 0.3 0.3
v -2.98023e-08 0.3 0.2
v -2.98023e-08 0.3 2.98023e-08
v -2.98023e-08 0.3 -0.3
v -2.98023e-08 0.3 -0.4
v -2.98023e-08 0.4 0.3
v -2.98023e-08 0.4 0.2
v -2.98023e-08 0.5 0.3
v -2.98023e-08 0.5 0.2
v -2.98023e-08 0.5 -0.1
v -2.98023e-08 0.5 -0.2
v -2.98023e-08 0.6 0.3
v -2.98023e-08 0.6 0.2
v -2.98023e-08 0.6 0.1
v -2.98023e-08 0.6 -0.1
v -2.98023e-08 0.6 -0.2
v -2.98023e-08 0.6 -0.3
v -2.98023e-08 0.6 -0.4
v -2.98023e-08 0.7 0.3
v -2.98023e-08 0.7 0.2
v -2.98023e-08 0.7 0.1
v -2.98023e-08 0.8 0.3
v -2.98023e-08 0.8 0.2
v 0.2 0.2 0.1
v 0.2 0.2 2.98023e-08
v 0.2 0.3 0.1
v 0.2 0.3 2.98023e-08
v 0.3 0.2 0.3
v 0.3 0.2 0.2
v 0.3 0.2 0.1
v 0.3 0.3 0.3
v 0.3 0.3 0.2
v 0.3 0.3 0.1
v 0.3 0.3 -0.3
v 0.3 0.4 0.1
v 0.3 0.4 -0.1
v 0.3 0.4 -0.2
v 0.3 0.5 0.1
v 0.3 0.5 -0.1
v 0.3 0.5 -0.2
v 0.3 0.6 0.1
v 0.3 0.6 -0.1
v 0.3 0.6 -0.3
v 0.4 0.3 0.3
v 0.4 0.3 0.1
v 0.4 0.3 -0.3
v 0.4 0.3 -0.5
v 0.4 0.4 0.3
v 0.4 0.4 0.2
v 0.4 0.4 0.1
v 0.4 0.4 -0.1
v 0.4 0.5 0.3
v 0.4 0.5 0.2
v 0.4 0.5 0.1
v 0.4 0.5 -0.1
v 0.4 0.6 0.3
v 0.4 0.6 0.2
v 0.4 0.6 -0.3
v 0.4 0.6 -0.5
v 0.4 0.7 0.3
v 0.4 0.7 0.2
v 0.4 0.7 0.1
v 0.4 0.8 0.3
v 0.4 0.8 0.2
v -0.3 0.3 0.3
v -0.3 0.4 0.3
v -0.3 0.5 0.3
v -0.3 0.6 0.3
v -0.3 0.7 0.3
v -0.3 0.8 0.3
v -0.2 0.2 0.3
v -0.2 0.3 0.3
v -2.98023e-08 0.2 0.3
v -2.98023e-08 0.3 0.3
v -2.98023e-08 0.4 0.3
v -2.98023e-08 0.5 0.3
v -2.98023e-08 0.6 0.3
v -2.98023e-08 0.7 0.3
v -2.98023e-08 0.8 0.3
v 0.1 0.2 0.3
v 0.1 0.3 0.3
v 0.1 0.4 0.3
v 0.1 0.5 0.3
v 0.1 0.6 0.3
v 0.1 0.7 0.3
v 0.1 0.8 0.3
v 0.3 0.2 0.3
v 0.3 0.3 0.3
v 0.4 0.3 0.3
v 0.4 0.4 0.3
v 0.4 0.5 0.3
v 0.4 0.6 0.3
v 0.4 0.7 0.3
v 0.4 0.8 0.3
v -0.3 0.3 -0.3
v -0.3 0.6 -0.3
v -0.2 0.3 -0.3
v -0.2 0.6 -0.3
v 0.3 0.3 -0.3
v 0.3 0.6 -0.3
v 0.4 0.3 -0.3
v 0.4 0.6 -0.3
v -0.3 0.7 0.2
v -0.3 0.8 0.2
v -2.98023e-08 0.7 0.2
v -2.98023e-08 0.8 0.2
v 0.1 0.7 0.2
v 0.1 0.8 0.2
v 0.4 0.7 0.2
v 0.4 0.8 0.2
v -0.3 0.3 0.1
v -0.3 0.4 0.1
v -0.3 0.5 0.1
v -0.3 0.7 0.1
v -0.2 0.2 0.1
v -0.2 0.3 0.1
v -0.2 0.4 0.1
v -0.2 0.5 0.1
v -0.2 0.6 0.1
v -0.1 0.2 0.1
v -0.1 0.3 0.1
v -0.1 0.6 0.1
v -2.98023e-08 0.6 0.1
v -2.98023e-08 0.7 0.1
v 0.1 0.6 0.1
v 0.1 0.7 0.1
v 0.2 0.2 0.1
v 0.2 0.3 0.1
v 0.2 0.6 0.1
v 0.3 0.2 0.1
v 0.3 0.3 0.1
v 0.3 0.4 0.1
v 0.3 0.5 0.1
v 0.3 0.6 0.1
v 0.4 0.3 0.1
v 0.4 0.4 0.1
v 0.4 0.5 0.1
v 0.4 0.7 0.1
v -0.1 0.2 2.98023e-08
v -0.1 0.3 2.98023e-08
v -2.98023e-08 0.2 2.98023e-08
v -2.98023e-08 0.3 2.98023e-08
v 0.1 0.2 2.98023e-08
v 0.1 0.3 2.98023e-08
v 0.2 0.2 2.98023e-08
v 0.2 0.3 2.98023e-08
v -0.3 0.4 -0.1
v -0.3 0.5 -0.1
v -0.2 0.4 -0.1
v -0.2 0.5 -0.1
v 0.3 0.4 -0.1
v 0.3 0.5 -0.1
v 0.4 0.4 -0.1
v 0.4 0.5 -0.1
v -0.1 0.3 -0.4
v -0.1 0.6 -0.4
v -2.98023e-08 0.3 -0.4
v -2.98023e-08 0.6 -0.4
v 0.1 0.3 -0.4
v 0.1 0.6 -0.4
v 0.2 0.3 -0.4
v 0.2 0.6 -0.4
v -0.3 0.3 -0.5
v -0.3 0.6 -0.5
v -0.2 0.3 -0.5
v -0.2 0.6 -0.5
v -0.1 0.3 -0.5
v -0.1 0.6 -0.5
v 0.2 0.3 -0.5
v 0.2 0.6 -0.5
v 0.3 0.3 -0.5
v 0.3 0.6 -0.5
v 0.4 0.3 -0.5
v 0.4 0.6 -0.5
v -0.2 0.2 0.3
v -2.98023e-08 0.2 0.3
v 0.1 0.2 0.3
v 0.3 0.2 0.3
v -0.2 0.2 0.2
v -2.98023e-08 0.2 0.2
v 0.1 0.2 0.2
v 0.3 0.2 0.2
v -0.2 0.2 0.1
v -0.1 0.2 0.1
v 0.2 0.2 0.1
v 0.3 0.2 0.1
v -0.1 0.2 2.98023e-08
v -2.98023e-08 0.2 2.98023e-08
v 0.1 0.2 2.98023e-08
v 0.2 0.2 2.98023e-08
v -0.3 0.3 0.3
v -0.2 0.3 0.3
v 0.3 0.3 0.3
v 0.4 0.3 0.3
v -0.2 0.3 0.2
v 0.3 0.3 0.2
v -0.3 0.3 0.1
v -0.2 0.3 0.1
v -0.1 0.3 0.1
v 0.2 0.3 0.1
v 0.3 0.3 0.1
v 0.4 0.3 0.1
v -0.1 0.3 2.98023e-08
v -2.98023e-08 0.3 2.98023e-08
v 0.1 0.3 2.98023e-08
v 0.2 0.3 2.98023e-08
v -0.3 0.3 -0.3
v -0.2 0.3 -0.3
v -0.1 0.3 -0.3
v -2.98023e-08 0.3 -0.3
v 0.1 0.3 -0.3
v 0.2 0.3 -0.3
v 0.3 0.3 -0.3
v 0.4 0.3 -0.3
v -0.2 0.3 -0.4
v -0.1 0.3 -0.4
v -2.98023e-08 0.3 -0.4
v 0.1 0.3 -0.4
v 0.2 0.3 -0.4
v 0.3 0.3 -0.4
v -0.3 0.3 -0.5
v -0.2 0.3 -0.5
v -0.1 0.3 -0.5
v 0.2 0.3 -0.5
v 0.3 0.3 -0.5
v 0.4 0.3 -0.5
v -0.3 0.4 0.1
v -0.2 0.4 0.1
v 0.3 0.4 0.1
v 0.4 0.4 0.1
v -0.3 0.4 -0.1
v -0.2 0.4 -0.1
v 0.3 0.4 -0.1
v 0.4 0.4 -0.1
v -0.3 0.5 0.1
v -0.2 0.5 0.1
v 0.3 0.5 0.1
v 0.4 0.5 0.1
v -0.3 0.5 -0.1
v -0.2 0.5 -0.1
v 0.3 0.5 -0.1
v 0.4 0.5 -0.1
v -0.2 0.6 0.1
v -0.1 0.6 0.1
v -2.98023e-08 0.6 0.1
v 0.1 0.6 0.1
v 0.2 0.6 0.1
v 0.3 0.6 0.1
v -0.2 0.6 -0.1
v -0.1 0.6 -0.1
v -2.98023e-08 0.6 -0.1
v 0.1 0.6 -0.1
v 0.2 0.6 -0.1
v 0.3 0.6 -0.1
v -0.1 0.6 -0.2
v -2.98023e-08 0.6 -0.2
v 0.1 0.6 -0.2
v 0.2 0.6 -0.2
v -0.3 0.6 -0.3
v -0.2 0.6 -0.3
v -0.1 0.6 -0.3
v -2.98023e-08 0.6 -0.3
v 0.1 0.6 -0.3
v 0.2 0.6 -0.3
v 0.3 0.6 -0.3
v 0.4 0.6 -0.3
v -0.2 0.6 -0.4
v -0.1 0.6 -0.4
v -2.98023e-08 0.6 -0.4
v 0.1 0.6 -0.4
v 0.2 0.6 -0.4
v 0.3 0.6 -0.4
v -0.3 0.6 -0.5
v -0.2 0.6 -0.5
v -0.1 0.6 -0.5
v 0.2 0.6 -0.5
v 0.3 0.6 -0.5
v 0.4 0.6 -0.5
v -0.3 0.7 0.2
v -2.98023e-08 0.7 0.2
v 0.1 0.7 0.2
v 0.4 0.7 0.2
v -0.3 0.7 0.1
v -2.98023e-08 0.7 0.1
v 0.1 0.7 0.1
v 0.4 0.7 0.1
v -0.3 0.8 0.3
v -2.98023e-08 0.8 0.3
v 0.1 0.8 0.3
v 0.4 0.8 0.3
v -0.3 0.8 0.2
v -2.98023e-08 0.8 0.2
v 0.1 0.8 0.2
v 0.4 0.8 0.2

# faces
f 5/4/1 2/4/1 1/4/1
f 6/4/1 2/4/1 5/4/1
f 7/4/1 2/4/1 6/4/1
f 9/3/1 6/3/1 5/3/1
f 10/2/1 8/2/1 7/2/1
f 10/3/1 6/3/1 9/3/1
f 10/2/1 7/2/1 6/2/1
f 11/2/1 8/2/1 10/2/1
f 12/2/1 8/2/1 11/2/1
f 13/4/1 10/4/1 9/4/1
f 13/4/1 11/4/1 10/4/1
f 14/4/1 11/4/1 13/4/1
f 15/4/1 4/4/1 3/4/1
f 16/4/1 4/4/1 15/4/1
f 17/3/1 14/3/1 13/3/1
f 18/4/1 11/4/1 14/4/1
f 18/3/1 14/3/1 17/3/1
f 19/4/1 11/4/1 18/4/1
f 20/4/1 18/4/1 17/4/1
f 21/4/1 18/4/1 20/4/1
f 25/3/1 23/3/1 22/3/1
f 26/4/1 24/4/1 23/4/1
f 26/3/1 23/3/1 25/3/1
f 27/4/1 24/4/1 26/4/1
f 29/4/1 28/4/1 27/4/1
f 30/4/1 28/4/1 29/4/1
f 31/4/1 28/4/1 30/4/1
f 33/2/1 31/2/1 30/2/1
f 34/4/1 28/4/1 31/4/1
f 34/2/1 31/2/1 33/2/1
f 35/1/1 33/1/1 32/1/1
f 36/4/1 34/4/1 33/4/1
f 36/1/1 33/1/1 35/1/1
f 37/4/1 28/4/1 34/4/1
f 37/4/1 34/4/1 36/4/1
f 40/4/1 39/4/1 38/4/1
f 41/4/1 39/4/1 40/4/1
f 45/3/1 43/3/1 42/3/1
f 46/4/1 44/4/1 43/4/1
f 46/3/1 43/3/1 45/3/1
f 47/4/1 44/4/1 46/4/1
f 50/4/1 46/4/1 45/4/1
f 50/4/1 47/4/1 46/4/1
f 50/4/1 48/4/1 47/4/1
f 51/4/1 48/4/1 50/4/1
f 52/3/1 51/3/1 50/3/1
f 53/4/1 48/4/1 51/4/1
f 53/3/1 51/3/1 52/3/1
f 54/4/1 48/4/1 53/4/1
f 55/4/1 48/4/1 54/4/1
f 56/4/1 53/4/1 52/4/1
f 56/4/1 54/4/1 53/4/1
f 57/4/1 54/4/1 56/4/1
f 58/4/1 54/4/1 57/4/1
f 59/1/1 55/1/1 54/1/1
f 59/4/1 54/4/1 58/4/1
f 60/4/1 48/4/1 55/4/1
f 60/1/1 55/1/1 59/1/1
f 61/2/1 49/2/1 48/2/1
f 61/4/1 48/4/1 60/4/1
f 62/2/1 49/2/1 61/2/1
f 63/3/1 57/3/1 56/3/1
f 64/4/1 58/4/1 57/4/1
f 64/3/1 57/3/1 63/3/1
f 65/4/1 58/4/1 64/4/1
f 66/4/1 64/4/1 63/4/1
f 67/4/1 64/4/1 66/4/1
f 70/2/1 69/2/1 68/2/1
f 71/2/1 69/2/1 70/2/1
f 72/2/2 73/2/2 74/2/2
f 74/2/2 73/2/2 75/2/2
f 76/3/2 77/3/2 79/3/2
f 77/4/2 78/4/2 80/4/2
f 79/3/2 77/3/2 80/3/2
f 80/4/2 78/4/2 81/4/2
f 79/4/2 80/4/2 84/4/2
f 80/4/2 81/4/2 84/4/2
f 81/4/2 82/4/2 84/4/2
f 84/4/2 82/4/2 85/4/2
f 84/3/2 85/3/2 86/3/2
f 85/4/2 82/4/2 87/4/2
f 86/3/2 85/3/2 87/3/2
f 87/4/2 82/4/2 88/4/2
f 88/4/2 82/4/2 89/4/2
f 86/4/2 87/4/2 90/4/2
f 87/4/2 88/4/2 90/4/2
f 90/4/2 88/4/2 91/4/2
f 91/4/2 88/4/2 92/4/2
f 88/1/2 89/1/2 93/1/2
f 92/4/2 88/4/2 93/4/2
f 89/4/2 82/4/2 94/4/2
f 93/1/2 89/1/2 94/1/2
f 82/2/2 83/2/2 95/2/2
f 94/4/2 82/4/2 95/4/2
f 95/2/2 83/2/2 96/2/2
f 90/3/2 91/3/2 97/3/2
f 91/4/2 92/4/2 98/4/2
f 97/3/2 91/3/2 98/3/2
f 98/4/2 92/4/2 99/4/2
f 97/4/2 98/4/2 100/4/2
f 100/4/2 98/4/2 101/4/2
f 102/4/2 103/4/2 104/4/2
f 104/4/2 103/4/2 105/4/2
f 106/3/2 107/3/2 109/3/2
f 107/4/2 108/4/2 110/4/2
f 109/3/2 107/3/2 110/3/2
f 110/4/2 108/4/2 111/4/2
f 111/4/2 112/4/2 113/4/2
f 113/4/2 112/4/2 114/4/2
f 114/4/2 112/4/2 115/4/2
f 114/2/2 115/2/2 117/2/2
f 115/4/2 112/4/2 118/4/2
f 117/2/2 115/2/2 118/2/2
f 116/1/2 117/1/2 119/1/2
f 117/4/2 118/4/2 120/4/2
f 119/1/2 117/1/2 120/1/2
f 118/4/2 112/4/2 121/4/2
f 120/4/2 118/4/2 121/4/2
f 122/4/2 123/4/2 126/4/2
f 126/4/2 123/4/2 127/4/2
f 127/4/2 123/4/2 128/4/2
f 126/3/2 127/3/2 130/3/2
f 128/2/2 129/2/2 131/2/2
f 130/3/2 127/3/2 131/3/2
f 127/2/2 128/2/2 131/2/2
f 131/2/2 129/2/2 132/2/2
f 132/2/2 129/2/2 133/2/2
f 130/4/2 131/4/2 134/4/2
f 131/4/2 132/4/2 134/4/2
f 134/4/2 132/4/2 135/4/2
f 124/4/2 125/4/2 136/4/2
f 136/4/2 125/4/2 137/4/2
f 134/3/2 135/3/2 138/3/2
f 135/4/2 132/4/2 139/4/2
f 138/3/2 135/3/2 139/3/2
f 139/4/2 132/4/2 140/4/2
f 138/4/2 139/4/2 141/4/2
f 141/4/2 139/4/2 142/4/2
f 150/4/3 144/4/3 143/4/3
f 151/3/3 150/3/3 149/3/3
f 152/4/3 144/4/3 150/4/3
f 152/3/3 150/3/3 151/3/3
f 153/3/3 145/3/3 144/3/3
f 153/4/3 144/4/3 152/4/3
f 154/4/3 146/4/3 145/4/3
f 154/3/3 145/3/3 153/3/3
f 155/3/3 147/3/3 146/3/3
f 155/4/3 146/4/3 154/4/3
f 156/4/3 148/4/3 147/4/3
f 156/3/3 147/3/3 155/3/3
f 157/4/3 148/4/3 156/4/3
f 165/3/3 159/3/3 158/3/3
f 166/4/3 160/4/3 159/4/3
f 166/3/3 159/3/3 165/3/3
f 167/4/3 160/4/3 166/4/3
f 168/3/3 161/3/3 160/3/3
f 168/4/3 160/4/3 167/4/3
f 169/4/3 162/4/3 161/4/3
f 169/3/3 161/3/3 168/3/3
f 170/3/3 163/3/3 162/3/3
f 170/4/3 162/4/3 169/4/3
f 171/4/3 164/4/3 163/4/3
f 171/3/3 163/3/3 170/3/3
f 172/4/3 164/4/3 171/4/3
f 175/4/3 174/4/3 173/4/3
f 176/4/3 174/4/3 175/4/3
f 179/4/3 178/4/3 177/4/3
f 180/4/3 178/4/3 179/4/3
f 181/4/4 182/4/4 183/4/4
f 183/4/4 182/4/4 184/4/4
f 185/4/4 186/4/4 187/4/4
f 187/4/4 186/4/4 188/4/4
f 189/4/4 190/4/4 194/4/4
f 194/4/4 190/4/4 195/4/4
f 191/4/4 192/4/4 196/4/4
f 196/4/4 192/4/4 197/4/4
f 193/4/4 194/4/4 198/4/4
f 198/4/4 194/4/4 199/4/4
f 197/4/4 192/4/4 200/4/4
f 200/4/4 192/4/4 201/4/4
f 201/4/4 192/4/4 202/4/4
f 203/4/4 204/4/4 207/4/4
f 205/4/4 206/4/4 208/4/4
f 208/4/4 206/4/4 209/4/4
f 207/4/4 204/4/4 212/4/4
f 209/4/4 210/4/4 213/4/4
f 213/4/4 210/4/4 214/4/4
f 211/4/4 212/4/4 215/4/4
f 212/4/4 204/4/4 216/4/4
f 215/4/4 212/4/4 216/4/4
f 217/4/4 218/4/4 219/4/4
f 219/4/4 218/4/4 220/4/4
f 221/4/4 222/4/4 223/4/4
f 223/4/4 222/4/4 224/4/4
f 225/2/4 226/2/4 227/2/4
f 227/2/4 226/2/4 228/2/4
f 229/2/4 230/2/4 231/2/4
f 231/2/4 230/2/4 232/2/4
f 233/2/4 234/2/4 235/2/4
f 235/2/4 234/2/4 236/2/4
f 237/2/4 238/2/4 239/2/4
f 239/2/4 238/2/4 240/2/4
f 241/4/4 242/4/4 243/4/4
f 243/4/4 242/4/4 244/4/4
f 243/2/4 244/2/4 245/2/4
f 245/2/4 244/2/4 246/2/4
f 247/2/4 248/2/4 249/2/4
f 249/2/4 248/2/4 250/2/4
f 249/4/4 250/4/4 251/4/4
f 251/4/4 250/4/4 252/4/4
f 257/3/5 254/3/5 253/3/5
f 258/3/5 254/3/5 257/3/5
f 259/3/5 256/3/5 255/3/5
f 260/3/5 256/3/5 259/3/5
f 261/4/5 258/4/5 257/4/5
f 262/4/5 258/4/5 261/4/5
f 263/4/5 260/4/5 259/4/5
f 264/4/5 260/4/5 263/4/5
f 265/4/5 258/4/5 262/4/5
f 266/4/5 258/4/5 265/4/5
f 267/4/5 263/4/5 259/4/5
f 268/4/5 263/4/5 267/4/5
f 273/4/5 270/4/5 269/4/5
f 274/4/5 272/4/5 271/4/5
f 275/4/5 273/4/5 269/4/5
f 276/4/5 273/4/5 275/4/5
f 279/4/5 272/4/5 274/4/5
f 280/4/5 272/4/5 279/4/5
f 281/4/5 277/4/5 276/4/5
f 284/4/5 279/4/5 278/4/5
f 286/4/5 282/4/5 281/4/5
f 286/4/5 281/4/5 276/4/5
f 287/4/5 282/4/5 286/4/5
f 288/4/5 282/4/5 287/4/5
f 289/4/5 284/4/5 283/4/5
f 290/4/5 279/4/5 284/4/5
f 290/4/5 284/4/5 289/4/5
f 291/4/5 279/4/5 290/4/5
f 293/4/5 286/4/5 285/4/5
f 293/4/5 287/4/5 286/4/5
f 294/2/5 288/2/5 287/2/5
f 294/4/5 287/4/5 293/4/5
f 295/2/5 288/2/5 294/2/5
f 296/2/5 290/2/5 289/2/5
f 297/4/5 292/4/5 291/4/5
f 297/2/5 290/2/5 296/2/5
f 297/4/5 291/4/5 290/4/5
f 298/4/5 292/4/5 297/4/5
f 299/4/5 293/4/5 285/4/5
f 300/2/5 294/2/5 293/2/5
f 300/4/5 293/4/5 299/4/5
f 301/2/5 294/2/5 300/2/5
f 302/2/5 298/2/5 297/2/5
f 303/4/5 292/4/5 298/4/5
f 303/2/5 298/2/5 302/2/5
f 304/4/5 292/4/5 303/4/5
f 309/2/5 306/2/5 305/2/5
f 310/2/5 306/2/5 309/2/5
f 311/2/5 308/2/5 307/2/5
f 312/2/5 308/2/5 311/2/5
f 313/2/6 314/2/6 317/2/6
f 317/2/6 314/2/6 318/2/6
f 315/2/6 316/2/6 319/2/6
f 319/2/6 316/2/6 320/2/6
f 321/1/6 322/1/6 327/1/6
f 322/4/6 323/4/6 328/4/6
f 327/1/6 322/1/6 328/1/6
f 328/4/6 323/4/6 329/4/6
f 324/4/6 325/4/6 330/4/6
f 325/1/6 326/1/6 331/1/6
f 330/4/6 325/4/6 331/4/6
f 331/1/6 326/1/6 332/1/6
f 328/1/6 329/1/6 333/1/6
f 327/4/6 328/4/6 333/4/6
f 333/1/6 329/1/6 334/1/6
f 330/1/6 331/1/6 335/1/6
f 331/4/6 332/4/6 336/4/6
f 335/1/6 331/1/6 336/1/6
f 333/4/6 334/4/6 338/4/6
f 327/4/6 333/4/6 338/4/6
f 338/4/6 334/4/6 339/4/6
f 339/4/6 334/4/6 340/4/6
f 335/4/6 336/4/6 341/4/6
f 336/4/6 332/4/6 342/4/6
f 341/4/6 336/4/6 342/4/6
f 342/4/6 332/4/6 343/4/6
f 337/4/6 338/4/6 345/4/6
f 338/4/6 339/4/6 345/4/6
f 339/2/6 340/2/6 346/2/6
f 345/4/6 339/4/6 346/4/6
f 346/2/6 340/2/6 347/2/6
f 341/2/6 342/2/6 348/2/6
f 342/4/6 343/4/6 349/4/6
f 348/2/6 342/2/6 349/2/6
f 343/4/6 344/4/6 349/4/6
f 349/4/6 344/4/6 350/4/6
f 337/4/6 345/4/6 351/4/6
f 345/2/6 346/2/6 352/2/6
f 351/4/6 345/4/6 352/4/6
f 352/2/6 346/2/6 353/2/6
f 349/2/6 350/2/6 354/2/6
f 350/4/6 344/4/6 355/4/6
f 354/2/6 350/2/6 355/2/6
f 355/4/6 344/4/6 356/4/6
f 357/4/6 358/4/6 361/4/6
f 361/4/6 358/4/6 362/4/6
f 359/4/6 360/4/6 363/4/6
f 363/4/6 360/4/6 364/4/6
f 365/4/6 366/4/6 369/4/6
f 369/4/6 366/4/6 370/4/6
f 367/4/6 368/4/6 371/4/6
f 371/4/6 368/4/6 372/4/6
