# MagicaVoxel @ Ephtracy

# group
o 

# material
mtllib 210503berobotv2-2.mtl
usemtl palette

# normals
vn -1 0 0
vn 1 0 0
vn 0 0 1
vn 0 0 -1
vn 0 -1 0
vn 0 1 0

# texcoords
vt 0.0292969 0.5
vt 0.494141 0.5
vt 0.748047 0.5
vt 0.775391 0.5

# verts
v -0.4 0.3 -0.2
v -0.4 0.3 -0.3
v -0.4 0.3 -0.4
v -0.4 0.6 -0.2
v -0.4 0.6 -0.3
v -0.4 0.6 -0.4
v -0.3 0.4 -0.1
v -0.3 0.4 -0.2
v -0.3 0.5 -0.1
v -0.3 0.5 -0.2
v -0.2 0.3 -0.1
v -0.2 0.3 -0.2
v -0.2 0.4 0
v -0.2 0.4 -0.1
v -0.2 0.4 -0.2
v -0.2 0.5 0
v -0.2 0.5 -0.1
v -0.2 0.5 -0.2
v -0.2 0.6 -0.1
v -0.2 0.6 -0.2
v -0.1 0.3 -0.2
v -0.1 0.3 -0.3
v -0.1 0.4 0.3
v -0.1 0.4 0.1
v -0.1 0.4 0
v -0.1 0.4 -0.2
v -0.1 0.4 -0.3
v -0.1 0.5 0.4
v -0.1 0.5 0.3
v -0.1 0.5 0
v -0.1 0.5 -0.1
v -0.1 0.5 -0.2
v -0.1 0.5 -0.3
v -0.1 0.6 0.4
v -0.1 0.6 0.1
v -0.1 0.6 -0.1
v -0.1 0.6 -0.2
v -0.1 0.6 -0.3
v 0 0.3 0.1
v 0 0.3 -0.1
v 0 0.4 0.1
v 0 0.4 -0.1
v 0 0.6 -0.1
v 0 0.6 -0.2
v 0 0.7 -0.1
v 0 0.7 -0.2
v 0.1 0.4 0.4
v 0.1 0.4 0.2
v 0.1 0.5 0.1
v 0.1 0.5 -0.1
v 0.1 0.6 0.4
v 0.1 0.6 0.2
v 0.1 0.6 0.1
v 0.1 0.7 0.1
v 0.1 0.7 -0.1
v -0.3 0.3 -0.2
v -0.3 0.3 -0.3
v -0.3 0.3 -0.4
v -0.3 0.4 -0.2
v -0.3 0.4 -0.3
v -0.3 0.4 -0.4
v -0.3 0.5 -0.2
v -0.3 0.5 -0.3
v -0.3 0.5 -0.4
v -0.3 0.6 -0.2
v -0.3 0.6 -0.3
v -0.3 0.6 -0.4
v -0.2 0.4 -0.3
v -0.2 0.4 -0.4
v -0.2 0.5 -0.3
v -0.2 0.5 -0.4
v 0 0.3 -0.1
v 0 0.3 -0.3
v 0 0.4 0.3
v 0 0.4 0.2
v 0 0.4 -0.1
v 0 0.4 -0.2
v 0 0.5 0.4
v 0 0.5 0.3
v 0 0.5 0.1
v 0 0.5 -0.1
v 0 0.5 -0.2
v 0 0.6 0.4
v 0 0.6 0.2
v 0 0.6 0.1
v 0 0.6 -0.1
v 0 0.6 -0.2
v 0 0.6 -0.3
v 0.1 0.3 0.1
v 0.1 0.3 -0.1
v 0.1 0.4 0.1
v 0.1 0.4 -0.1
v 0.1 0.4 -0.2
v 0.1 0.5 -0.1
v 0.1 0.5 -0.2
v 0.1 0.7 -0.1
v 0.1 0.7 -0.2
v 0.2 0.4 0.4
v 0.2 0.4 0.1
v 0.2 0.4 -0.1
v 0.2 0.5 0.1
v 0.2 0.5 -0.1
v 0.2 0.6 0.4
v 0.2 0.6 0.1
v 0.2 0.7 0.1
v 0.2 0.7 -0.1
v -0.1 0.5 0.4
v -0.1 0.6 0.4
v 0 0.5 0.4
v 0 0.6 0.4
v 0.1 0.4 0.4
v 0.1 0.6 0.4
v 0.2 0.4 0.4
v 0.2 0.6 0.4
v -0.1 0.4 0.3
v -0.1 0.5 0.3
v 0 0.4 0.3
v 0 0.5 0.3
v 0 0.4 0.2
v 0 0.6 0.2
v 0.1 0.4 0.2
v 0.1 0.6 0.2
v 0 0.3 0.1
v 0 0.4 0.1
v 0.1 0.3 0.1
v 0.1 0.4 0.1
v 0.1 0.6 0.1
v 0.1 0.7 0.1
v 0.2 0.6 0.1
v 0.2 0.7 0.1
v -0.2 0.4 0
v -0.2 0.5 0
v -0.1 0.4 0
v -0.1 0.5 0
v -0.3 0.4 -0.1
v -0.3 0.5 -0.1
v -0.2 0.3 -0.1
v -0.2 0.4 -0.1
v -0.2 0.5 -0.1
v -0.2 0.6 -0.1
v -0.1 0.5 -0.1
v -0.1 0.6 -0.1
v 0 0.3 -0.1
v 0 0.4 -0.1
v 0 0.5 -0.1
v 0 0.6 -0.1
v 0 0.7 -0.1
v 0.1 0.5 -0.1
v 0.1 0.7 -0.1
v -0.4 0.3 -0.2
v -0.4 0.6 -0.2
v -0.3 0.3 -0.2
v -0.3 0.4 -0.2
v -0.3 0.5 -0.2
v -0.3 0.6 -0.2
v 0 0.5 0.1
v 0 0.6 0.1
v 0.1 0.5 0.1
v 0.1 0.6 0.1
v 0 0.3 -0.1
v 0 0.4 -0.1
v 0.1 0.3 -0.1
v 0.1 0.4 -0.1
v 0.1 0.5 -0.1
v 0.1 0.7 -0.1
v 0.2 0.4 -0.1
v 0.2 0.5 -0.1
v 0.2 0.7 -0.1
v -0.2 0.3 -0.2
v -0.2 0.4 -0.2
v -0.2 0.5 -0.2
v -0.2 0.6 -0.2
v -0.1 0.3 -0.2
v -0.1 0.4 -0.2
v -0.1 0.5 -0.2
v -0.1 0.6 -0.2
v 0 0.4 -0.2
v 0 0.5 -0.2
v 0 0.6 -0.2
v 0 0.7 -0.2
v 0.1 0.4 -0.2
v 0.1 0.5 -0.2
v 0.1 0.7 -0.2
v -0.2 0.4 -0.3
v -0.2 0.5 -0.3
v -0.1 0.3 -0.3
v -0.1 0.4 -0.3
v -0.1 0.5 -0.3
v -0.1 0.6 -0.3
v 0 0.3 -0.3
v 0 0.6 -0.3
v -0.4 0.3 -0.4
v -0.4 0.6 -0.4
v -0.3 0.3 -0.4
v -0.3 0.4 -0.4
v -0.3 0.5 -0.4
v -0.3 0.6 -0.4
v -0.2 0.4 -0.4
v -0.2 0.5 -0.4
v 0 0.3 0.1
v 0.1 0.3 0.1
v -0.2 0.3 -0.1
v 0 0.3 -0.1
v 0.1 0.3 -0.1
v -0.4 0.3 -0.2
v -0.3 0.3 -0.2
v -0.2 0.3 -0.2
v -0.1 0.3 -0.2
v -0.4 0.3 -0.3
v -0.3 0.3 -0.3
v -0.1 0.3 -0.3
v 0 0.3 -0.3
v -0.4 0.3 -0.4
v -0.3 0.3 -0.4
v 0.1 0.4 0.4
v 0.2 0.4 0.4
v -0.1 0.4 0.3
v 0 0.4 0.3
v 0 0.4 0.2
v 0.1 0.4 0.2
v -0.1 0.4 0.1
v 0 0.4 0.1
v 0.1 0.4 0.1
v 0.2 0.4 0.1
v -0.2 0.4 0
v -0.1 0.4 0
v -0.3 0.4 -0.1
v -0.2 0.4 -0.1
v 0 0.4 -0.1
v 0.1 0.4 -0.1
v 0.2 0.4 -0.1
v -0.3 0.4 -0.2
v -0.2 0.4 -0.2
v -0.1 0.4 -0.2
v 0 0.4 -0.2
v 0.1 0.4 -0.2
v -0.3 0.4 -0.3
v -0.2 0.4 -0.3
v -0.1 0.4 -0.3
v -0.3 0.4 -0.4
v -0.2 0.4 -0.4
v -0.1 0.5 0.4
v 0 0.5 0.4
v -0.1 0.5 0.3
v 0 0.5 0.3
v 0 0.5 0.1
v 0.1 0.5 0.1
v -0.2 0.5 0
v -0.1 0.5 0
v -0.3 0.5 -0.1
v -0.2 0.5 -0.1
v -0.1 0.5 -0.1
v 0 0.5 -0.1
v 0.1 0.5 -0.1
v -0.3 0.5 -0.2
v -0.2 0.5 -0.2
v -0.1 0.5 -0.2
v -0.3 0.5 -0.3
v -0.2 0.5 -0.3
v -0.1 0.5 -0.3
v -0.3 0.5 -0.4
v -0.2 0.5 -0.4
v -0.1 0.6 0.4
v 0 0.6 0.4
v 0.1 0.6 0.4
v 0.2 0.6 0.4
v 0 0.6 0.2
v 0.1 0.6 0.2
v -0.1 0.6 0.1
v 0 0.6 0.1
v 0.1 0.6 0.1
v 0.2 0.6 0.1
v -0.2 0.6 -0.1
v -0.1 0.6 -0.1
v 0 0.6 -0.1
v -0.4 0.6 -0.2
v -0.3 0.6 -0.2
v -0.2 0.6 -0.2
v -0.1 0.6 -0.2
v 0 0.6 -0.2
v -0.4 0.6 -0.3
v -0.3 0.6 -0.3
v -0.1 0.6 -0.3
v 0 0.6 -0.3
v -0.4 0.6 -0.4
v -0.3 0.6 -0.4
v 0.1 0.7 0.1
v 0.2 0.7 0.1
v 0 0.7 -0.1
v 0.1 0.7 -0.1
v 0.2 0.7 -0.1
v 0 0.7 -0.2
v 0.1 0.7 -0.2

# faces
f 4/3/1 2/3/1 1/3/1
f 5/4/1 3/4/1 2/4/1
f 5/3/1 2/3/1 4/3/1
f 6/4/1 3/4/1 5/4/1
f 9/3/1 8/3/1 7/3/1
f 10/3/1 8/3/1 9/3/1
f 14/4/1 12/4/1 11/4/1
f 15/4/1 12/4/1 14/4/1
f 16/4/1 14/4/1 13/4/1
f 17/4/1 14/4/1 16/4/1
f 19/4/1 18/4/1 17/4/1
f 20/4/1 18/4/1 19/4/1
f 26/4/1 22/4/1 21/4/1
f 27/4/1 22/4/1 26/4/1
f 29/3/1 24/3/1 23/3/1
f 30/4/1 25/4/1 24/4/1
f 34/3/1 29/3/1 28/3/1
f 35/3/1 24/3/1 29/3/1
f 35/3/1 29/3/1 34/3/1
f 35/4/1 30/4/1 24/4/1
f 35/4/1 31/4/1 30/4/1
f 36/4/1 31/4/1 35/4/1
f 37/4/1 33/4/1 32/4/1
f 38/4/1 33/4/1 37/4/1
f 41/4/1 40/4/1 39/4/1
f 42/4/1 40/4/1 41/4/1
f 45/1/1 44/1/1 43/1/1
f 46/1/1 44/1/1 45/1/1
f 51/3/1 48/3/1 47/3/1
f 52/3/1 48/3/1 51/3/1
f 53/1/1 50/1/1 49/1/1
f 54/1/1 50/1/1 53/1/1
f 55/1/1 50/1/1 54/1/1
f 56/3/2 57/3/2 59/3/2
f 57/4/2 58/4/2 60/4/2
f 59/3/2 57/3/2 60/3/2
f 60/4/2 58/4/2 61/4/2
f 62/3/2 63/3/2 65/3/2
f 63/4/2 64/4/2 66/4/2
f 65/3/2 63/3/2 66/3/2
f 66/4/2 64/4/2 67/4/2
f 68/4/2 69/4/2 70/4/2
f 70/4/2 69/4/2 71/4/2
f 72/4/2 73/4/2 76/4/2
f 76/4/2 73/4/2 77/4/2
f 74/3/2 75/3/2 79/3/2
f 77/4/2 73/4/2 82/4/2
f 78/3/2 79/3/2 83/3/2
f 79/3/2 75/3/2 84/3/2
f 83/3/2 79/3/2 84/3/2
f 80/4/2 81/4/2 85/4/2
f 85/4/2 81/4/2 86/4/2
f 82/4/2 73/4/2 87/4/2
f 87/4/2 73/4/2 88/4/2
f 89/4/2 90/4/2 91/4/2
f 91/4/2 90/4/2 92/4/2
f 92/2/2 93/2/2 94/2/2
f 94/2/2 93/2/2 95/2/2
f 94/1/2 95/1/2 96/1/2
f 96/1/2 95/1/2 97/1/2
f 98/3/2 99/3/2 101/3/2
f 99/2/2 100/2/2 101/2/2
f 101/2/2 100/2/2 102/2/2
f 98/3/2 101/3/2 103/3/2
f 101/1/2 102/1/2 104/1/2
f 103/3/2 101/3/2 104/3/2
f 104/1/2 102/1/2 105/1/2
f 105/1/2 102/1/2 106/1/2
f 109/3/3 108/3/3 107/3/3
f 110/3/3 108/3/3 109/3/3
f 113/3/3 112/3/3 111/3/3
f 114/3/3 112/3/3 113/3/3
f 117/3/3 116/3/3 115/3/3
f 118/3/3 116/3/3 117/3/3
f 121/3/3 120/3/3 119/3/3
f 122/3/3 120/3/3 121/3/3
f 125/4/3 124/4/3 123/4/3
f 126/4/3 124/4/3 125/4/3
f 129/1/3 128/1/3 127/1/3
f 130/1/3 128/1/3 129/1/3
f 133/4/3 132/4/3 131/4/3
f 134/4/3 132/4/3 133/4/3
f 138/3/3 136/3/3 135/3/3
f 139/3/3 136/3/3 138/3/3
f 141/4/3 140/4/3 139/4/3
f 142/4/3 140/4/3 141/4/3
f 143/4/3 138/4/3 137/4/3
f 144/4/3 138/4/3 143/4/3
f 148/1/3 146/1/3 145/1/3
f 148/1/3 147/1/3 146/1/3
f 149/1/3 147/1/3 148/1/3
f 152/3/3 151/3/3 150/3/3
f 153/3/3 151/3/3 152/3/3
f 154/3/3 151/3/3 153/3/3
f 155/3/3 151/3/3 154/3/3
f 156/3/4 157/3/4 158/3/4
f 158/3/4 157/3/4 159/3/4
f 160/4/4 161/4/4 162/4/4
f 162/4/4 161/4/4 163/4/4
f 163/2/4 164/2/4 166/2/4
f 164/1/4 165/1/4 167/1/4
f 166/2/4 164/2/4 167/2/4
f 167/1/4 165/1/4 168/1/4
f 169/4/4 170/4/4 173/4/4
f 173/4/4 170/4/4 174/4/4
f 171/4/4 172/4/4 175/4/4
f 175/4/4 172/4/4 176/4/4
f 177/2/4 178/2/4 181/2/4
f 178/1/4 179/1/4 182/1/4
f 181/2/4 178/2/4 182/2/4
f 179/1/4 180/1/4 182/1/4
f 182/1/4 180/1/4 183/1/4
f 184/4/4 185/4/4 187/4/4
f 187/4/4 185/4/4 188/4/4
f 186/4/4 187/4/4 190/4/4
f 188/4/4 189/4/4 190/4/4
f 187/4/4 188/4/4 190/4/4
f 190/4/4 189/4/4 191/4/4
f 192/4/4 193/4/4 194/4/4
f 194/4/4 193/4/4 195/4/4
f 195/4/4 193/4/4 196/4/4
f 196/4/4 193/4/4 197/4/4
f 195/4/4 196/4/4 198/4/4
f 198/4/4 196/4/4 199/4/4
f 203/4/5 201/4/5 200/4/5
f 204/4/5 201/4/5 203/4/5
f 207/4/5 203/4/5 202/4/5
f 208/4/5 203/4/5 207/4/5
f 209/3/5 206/3/5 205/3/5
f 210/3/5 206/3/5 209/3/5
f 211/4/5 203/4/5 208/4/5
f 212/4/5 203/4/5 211/4/5
f 213/4/5 210/4/5 209/4/5
f 214/4/5 210/4/5 213/4/5
f 219/3/5 218/3/5 217/3/5
f 220/3/5 216/3/5 215/3/5
f 221/3/5 219/3/5 217/3/5
f 221/3/5 220/3/5 219/3/5
f 222/3/5 220/3/5 221/3/5
f 223/3/5 216/3/5 220/3/5
f 223/3/5 220/3/5 222/3/5
f 224/3/5 216/3/5 223/3/5
f 226/4/5 222/4/5 221/4/5
f 228/4/5 226/4/5 225/4/5
f 229/4/5 222/4/5 226/4/5
f 229/4/5 226/4/5 228/4/5
f 230/2/5 224/2/5 223/2/5
f 231/2/5 224/2/5 230/2/5
f 232/3/5 228/3/5 227/3/5
f 233/3/5 228/3/5 232/3/5
f 235/2/5 230/2/5 229/2/5
f 236/2/5 230/2/5 235/2/5
f 237/4/5 234/4/5 233/4/5
f 237/4/5 233/4/5 232/4/5
f 238/4/5 234/4/5 237/4/5
f 239/4/5 234/4/5 238/4/5
f 240/4/5 238/4/5 237/4/5
f 241/4/5 238/4/5 240/4/5
f 244/3/5 243/3/5 242/3/5
f 245/3/5 243/3/5 244/3/5
f 248/4/6 249/4/6 251/4/6
f 251/4/6 249/4/6 252/4/6
f 246/4/6 247/4/6 253/4/6
f 253/4/6 247/4/6 254/4/6
f 250/3/6 251/3/6 255/3/6
f 255/3/6 251/3/6 256/3/6
f 255/4/6 256/4/6 258/4/6
f 256/4/6 257/4/6 258/4/6
f 258/4/6 257/4/6 259/4/6
f 259/4/6 257/4/6 260/4/6
f 258/4/6 259/4/6 261/4/6
f 261/4/6 259/4/6 262/4/6
f 263/3/6 264/3/6 267/3/6
f 265/3/6 266/3/6 268/3/6
f 263/3/6 267/3/6 269/3/6
f 267/3/6 268/3/6 269/3/6
f 269/3/6 268/3/6 270/3/6
f 268/3/6 266/3/6 271/3/6
f 270/3/6 268/3/6 271/3/6
f 271/3/6 266/3/6 272/3/6
f 269/4/6 270/4/6 274/4/6
f 274/4/6 270/4/6 275/4/6
f 273/4/6 274/4/6 278/4/6
f 274/4/6 275/4/6 278/4/6
f 278/4/6 275/4/6 279/4/6
f 279/4/6 275/4/6 280/4/6
f 276/3/6 277/3/6 281/3/6
f 281/3/6 277/3/6 282/3/6
f 279/4/6 280/4/6 283/4/6
f 283/4/6 280/4/6 284/4/6
f 281/4/6 282/4/6 285/4/6
f 285/4/6 282/4/6 286/4/6
f 287/1/6 288/1/6 290/1/6
f 290/1/6 288/1/6 291/1/6
f 289/1/6 290/1/6 292/1/6
f 292/1/6 290/1/6 293/1/6
