# MagicaVoxel @ Ephtracy

# group
o 

# material
mtllib 210503meat.mtl
usemtl palette

# normals
vn -1 0 0
vn 1 0 0
vn 0 -1 0
vn 0 1 0
vn 0 0 -1
vn 0 0 1

# texcoords
vt 0.279297 0.5
vt 0.306641 0.5
vt 0.310547 0.5
vt 0.958984 0.5

# verts
v -0.3 0 -0.3
v -0.3 0.5 -0.3
v -0.3 0 0.2
v -0.3 0.5 0.2
v -0.2 0 -0.4
v -0.2 0.5 -0.4
v -0.2 0 -0.3
v -0.2 0.5 -0.3
v -0.2 0 0.2
v -0.2 0.5 0.2
v -0.2 0 0.3
v -0.2 0.5 0.3
v -0.1 0.1 -0.7
v -0.1 0.4 -0.7
v -0.1 0.1 -0.5
v -0.1 0.4 -0.5
v -0.1 0.1 0.4
v -0.1 0.4 0.4
v -0.1 0.1 0.6
v -0.1 0.4 0.6
v -2.98023e-08 0.1 -0.5
v -2.98023e-08 0.4 -0.5
v -2.98023e-08 0.1 -0.4
v -2.98023e-08 0.4 -0.4
v -2.98023e-08 0.1 0.3
v -2.98023e-08 0.4 0.3
v -2.98023e-08 0.1 0.4
v -2.98023e-08 0.4 0.4
v 0.1 0.1 -0.3
v 0.1 0.2 -0.3
v 0.1 0.1 -0.2
v 0.1 0.2 -0.2
v 0.1 0 -0.1
v 0.1 0.5 -0.1
v 0.1 0 0.1
v 0.1 0.5 0.1
v 0.2 0.2 -0.3
v 0.2 0.4 -0.3
v 0.2 0 -0.2
v 0.2 0.2 -0.2
v 0.2 0.4 -0.2
v 0.2 0.5 -0.2
v 0.2 0 -0.1
v 0.2 0.5 -0.1
v -0.1 0.2 -0.3
v -0.1 0.4 -0.3
v -0.1 0 -0.2
v -0.1 0.2 -0.2
v -0.1 0.4 -0.2
v -0.1 0.5 -0.2
v -0.1 0 0
v -0.1 0.5 0
v -2.98023e-08 0.1 -0.3
v -2.98023e-08 0.2 -0.3
v -2.98023e-08 0.1 -0.2
v -2.98023e-08 0.2 -0.2
v -2.98023e-08 0 0
v -2.98023e-08 0.5 0
v -2.98023e-08 0 0.1
v -2.98023e-08 0.5 0.1
v 0.1 0.1 -0.5
v 0.1 0.4 -0.5
v 0.1 0.1 -0.4
v 0.1 0.4 -0.4
v 0.1 0.1 0.3
v 0.1 0.4 0.3
v 0.1 0.1 0.4
v 0.1 0.4 0.4
v 0.2 0.1 -0.7
v 0.2 0.4 -0.7
v 0.2 0.1 -0.5
v 0.2 0.4 -0.5
v 0.2 0.1 0.4
v 0.2 0.4 0.4
v 0.2 0.1 0.6
v 0.2 0.4 0.6
v 0.3 0 -0.4
v 0.3 0.5 -0.4
v 0.3 0 -0.3
v 0.3 0.5 -0.3
v 0.3 0 0.2
v 0.3 0.5 0.2
v 0.3 0 0.3
v 0.3 0.5 0.3
v 0.4 0 -0.3
v 0.4 0.5 -0.3
v 0.4 0 0.2
v 0.4 0.5 0.2
v -0.3 0 -0.3
v -0.3 0 0.2
v -0.2 0 -0.4
v -0.2 0 -0.3
v -0.2 0 0.2
v -0.2 0 0.3
v -0.1 0 -0.2
v -0.1 0 0
v -2.98023e-08 0 0
v -2.98023e-08 0 0.1
v 0.1 0 -0.1
v 0.1 0 0.1
v 0.2 0 -0.2
v 0.2 0 -0.1
v 0.3 0 -0.4
v 0.3 0 -0.3
v 0.3 0 0.2
v 0.3 0 0.3
v 0.4 0 -0.3
v 0.4 0 0.2
v -0.1 0.1 -0.7
v -0.1 0.1 -0.5
v -0.1 0.1 0.4
v -0.1 0.1 0.6
v -2.98023e-08 0.1 -0.5
v -2.98023e-08 0.1 -0.4
v -2.98023e-08 0.1 0.3
v -2.98023e-08 0.1 0.4
v 0.1 0.1 -0.5
v 0.1 0.1 -0.4
v 0.1 0.1 0.3
v 0.1 0.1 0.4
v 0.2 0.1 -0.7
v 0.2 0.1 -0.5
v 0.2 0.1 0.4
v 0.2 0.1 0.6
v -0.1 0.4 -0.3
v -0.1 0.4 -0.2
v 0.2 0.4 -0.3
v 0.2 0.4 -0.2
v -2.98023e-08 0.1 -0.3
v -2.98023e-08 0.1 -0.2
v 0.1 0.1 -0.3
v 0.1 0.1 -0.2
v -0.1 0.2 -0.3
v -0.1 0.2 -0.2
v -2.98023e-08 0.2 -0.3
v -2.98023e-08 0.2 -0.2
v 0.1 0.2 -0.3
v 0.1 0.2 -0.2
v 0.2 0.2 -0.3
v 0.2 0.2 -0.2
v -0.1 0.4 -0.7
v -0.1 0.4 -0.5
v -0.1 0.4 0.4
v -0.1 0.4 0.6
v -2.98023e-08 0.4 -0.5
v -2.98023e-08 0.4 -0.4
v -2.98023e-08 0.4 0.3
v -2.98023e-08 0.4 0.4
v 0.1 0.4 -0.5
v 0.1 0.4 -0.4
v 0.1 0.4 0.3
v 0.1 0.4 0.4
v 0.2 0.4 -0.7
v 0.2 0.4 -0.5
v 0.2 0.4 0.4
v 0.2 0.4 0.6
v -0.3 0.5 -0.3
v -0.3 0.5 0.2
v -0.2 0.5 -0.4
v -0.2 0.5 -0.3
v -0.2 0.5 0.2
v -0.2 0.5 0.3
v -0.1 0.5 -0.2
v -0.1 0.5 0
v -2.98023e-08 0.5 0
v -2.98023e-08 0.5 0.1
v 0.1 0.5 -0.1
v 0.1 0.5 0.1
v 0.2 0.5 -0.2
v 0.2 0.5 -0.1
v 0.3 0.5 -0.4
v 0.3 0.5 -0.3
v 0.3 0.5 0.2
v 0.3 0.5 0.3
v 0.4 0.5 -0.3
v 0.4 0.5 0.2
v -0.1 0.1 -0.7
v 0.2 0.1 -0.7
v -0.1 0.4 -0.7
v 0.2 0.4 -0.7
v -0.2 0 -0.4
v 0.3 0 -0.4
v -2.98023e-08 0.1 -0.4
v 0.1 0.1 -0.4
v -2.98023e-08 0.4 -0.4
v 0.1 0.4 -0.4
v -0.2 0.5 -0.4
v 0.3 0.5 -0.4
v -0.3 0 -0.3
v -0.2 0 -0.3
v 0.3 0 -0.3
v 0.4 0 -0.3
v -0.3 0.5 -0.3
v -0.2 0.5 -0.3
v 0.3 0.5 -0.3
v 0.4 0.5 -0.3
v 0.1 0 -0.1
v 0.2 0 -0.1
v 0.1 0.5 -0.1
v 0.2 0.5 -0.1
v -0.1 0 0
v -2.98023e-08 0 0
v -0.1 0.5 0
v -2.98023e-08 0.5 0
v -2.98023e-08 0 0.1
v 0.1 0 0.1
v -2.98023e-08 0.5 0.1
v 0.1 0.5 0.1
v -0.1 0.1 0.4
v -2.98023e-08 0.1 0.4
v 0.1 0.1 0.4
v 0.2 0.1 0.4
v -0.1 0.4 0.4
v -2.98023e-08 0.4 0.4
v 0.1 0.4 0.4
v 0.2 0.4 0.4
v -0.1 0.1 -0.5
v -2.98023e-08 0.1 -0.5
v 0.1 0.1 -0.5
v 0.2 0.1 -0.5
v -0.1 0.4 -0.5
v -2.98023e-08 0.4 -0.5
v 0.1 0.4 -0.5
v 0.2 0.4 -0.5
v -2.98023e-08 0.1 -0.3
v 0.1 0.1 -0.3
v -0.1 0.2 -0.3
v -2.98023e-08 0.2 -0.3
v 0.1 0.2 -0.3
v 0.2 0.2 -0.3
v -0.1 0.4 -0.3
v 0.2 0.4 -0.3
v -0.1 0 -0.2
v 0.2 0 -0.2
v -2.98023e-08 0.1 -0.2
v 0.1 0.1 -0.2
v -0.1 0.2 -0.2
v -2.98023e-08 0.2 -0.2
v 0.1 0.2 -0.2
v 0.2 0.2 -0.2
v -0.1 0.4 -0.2
v 0.2 0.4 -0.2
v -0.1 0.5 -0.2
v 0.2 0.5 -0.2
v -0.3 0 0.2
v -0.2 0 0.2
v 0.3 0 0.2
v 0.4 0 0.2
v -0.3 0.5 0.2
v -0.2 0.5 0.2
v 0.3 0.5 0.2
v 0.4 0.5 0.2
v -0.2 0 0.3
v 0.3 0 0.3
v -0.1 0.1 0.3
v -2.98023e-08 0.1 0.3
v 0.1 0.1 0.3
v 0.2 0.1 0.3
v -0.1 0.4 0.3
v -2.98023e-08 0.4 0.3
v 0.1 0.4 0.3
v 0.2 0.4 0.3
v -0.2 0.5 0.3
v 0.3 0.5 0.3
v -0.1 0.1 0.6
v 0.2 0.1 0.6
v -0.1 0.4 0.6
v 0.2 0.4 0.6

# faces
f 3/1/1 2/1/1 1/1/1
f 4/1/1 2/1/1 3/1/1
f 7/1/1 6/1/1 5/1/1
f 8/1/1 6/1/1 7/1/1
f 11/1/1 10/1/1 9/1/1
f 12/1/1 10/1/1 11/1/1
f 15/4/1 14/4/1 13/4/1
f 16/4/1 14/4/1 15/4/1
f 19/4/1 18/4/1 17/4/1
f 20/4/1 18/4/1 19/4/1
f 23/4/1 22/4/1 21/4/1
f 24/4/1 22/4/1 23/4/1
f 27/4/1 26/4/1 25/4/1
f 28/4/1 26/4/1 27/4/1
f 31/3/1 30/3/1 29/3/1
f 32/3/1 30/3/1 31/3/1
f 35/3/1 34/3/1 33/3/1
f 36/3/1 34/3/1 35/3/1
f 40/3/1 38/3/1 37/3/1
f 41/3/1 38/3/1 40/3/1
f 43/3/1 40/3/1 39/3/1
f 43/3/1 42/3/1 41/3/1
f 43/3/1 41/3/1 40/3/1
f 44/3/1 42/3/1 43/3/1
f 45/3/2 46/3/2 48/3/2
f 48/3/2 46/3/2 49/3/2
f 47/3/2 48/3/2 51/3/2
f 49/3/2 50/3/2 51/3/2
f 48/3/2 49/3/2 51/3/2
f 51/3/2 50/3/2 52/3/2
f 53/3/2 54/3/2 55/3/2
f 55/3/2 54/3/2 56/3/2
f 57/3/2 58/3/2 59/3/2
f 59/3/2 58/3/2 60/3/2
f 61/4/2 62/4/2 63/4/2
f 63/4/2 62/4/2 64/4/2
f 65/4/2 66/4/2 67/4/2
f 67/4/2 66/4/2 68/4/2
f 69/4/2 70/4/2 71/4/2
f 71/4/2 70/4/2 72/4/2
f 73/4/2 74/4/2 75/4/2
f 75/4/2 74/4/2 76/4/2
f 77/1/2 78/1/2 79/1/2
f 79/1/2 78/1/2 80/1/2
f 81/1/2 82/1/2 83/1/2
f 83/1/2 82/1/2 84/1/2
f 85/1/2 86/1/2 87/1/2
f 87/1/2 86/1/2 88/1/2
f 92/1/3 90/1/3 89/1/3
f 93/1/3 90/1/3 92/1/3
f 95/3/3 93/3/3 92/3/3
f 96/3/3 93/3/3 95/3/3
f 97/3/3 93/3/3 96/3/3
f 98/3/3 93/3/3 97/3/3
f 100/3/3 93/3/3 98/3/3
f 101/3/3 95/3/3 92/3/3
f 102/3/3 100/3/3 99/3/3
f 103/1/3 92/1/3 91/1/3
f 104/3/3 102/3/3 101/3/3
f 104/1/3 92/1/3 103/1/3
f 104/3/3 101/3/3 92/3/3
f 105/1/3 94/1/3 93/1/3
f 105/3/3 102/3/3 104/3/3
f 105/3/3 100/3/3 102/3/3
f 105/3/3 93/3/3 100/3/3
f 106/1/3 94/1/3 105/1/3
f 107/1/3 105/1/3 104/1/3
f 108/1/3 105/1/3 107/1/3
f 113/4/3 110/4/3 109/4/3
f 116/4/3 112/4/3 111/4/3
f 117/4/3 114/4/3 113/4/3
f 117/4/3 113/4/3 109/4/3
f 118/4/3 114/4/3 117/4/3
f 119/4/3 116/4/3 115/4/3
f 120/4/3 112/4/3 116/4/3
f 120/4/3 116/4/3 119/4/3
f 121/4/3 117/4/3 109/4/3
f 122/4/3 117/4/3 121/4/3
f 123/4/3 112/4/3 120/4/3
f 124/4/3 112/4/3 123/4/3
f 127/3/3 126/3/3 125/3/3
f 128/3/3 126/3/3 127/3/3
f 129/3/4 130/3/4 131/3/4
f 131/3/4 130/3/4 132/3/4
f 133/3/4 134/3/4 135/3/4
f 135/3/4 134/3/4 136/3/4
f 137/3/4 138/3/4 139/3/4
f 139/3/4 138/3/4 140/3/4
f 141/4/4 142/4/4 145/4/4
f 143/4/4 144/4/4 148/4/4
f 145/4/4 146/4/4 149/4/4
f 141/4/4 145/4/4 149/4/4
f 149/4/4 146/4/4 150/4/4
f 147/4/4 148/4/4 151/4/4
f 148/4/4 144/4/4 152/4/4
f 151/4/4 148/4/4 152/4/4
f 141/4/4 149/4/4 153/4/4
f 153/4/4 149/4/4 154/4/4
f 152/4/4 144/4/4 155/4/4
f 155/4/4 144/4/4 156/4/4
f 157/1/4 158/1/4 160/1/4
f 160/1/4 158/1/4 161/1/4
f 160/3/4 161/3/4 163/3/4
f 163/3/4 161/3/4 164/3/4
f 164/3/4 161/3/4 165/3/4
f 165/3/4 161/3/4 166/3/4
f 166/3/4 161/3/4 168/3/4
f 160/3/4 163/3/4 169/3/4
f 167/3/4 168/3/4 170/3/4
f 159/1/4 160/1/4 171/1/4
f 169/3/4 170/3/4 172/3/4
f 171/1/4 160/1/4 172/1/4
f 160/3/4 169/3/4 172/3/4
f 161/1/4 162/1/4 173/1/4
f 172/3/4 170/3/4 173/3/4
f 170/3/4 168/3/4 173/3/4
f 168/3/4 161/3/4 173/3/4
f 173/1/4 162/1/4 174/1/4
f 172/1/4 173/1/4 175/1/4
f 175/1/4 173/1/4 176/1/4
f 179/4/5 178/4/5 177/4/5
f 180/4/5 178/4/5 179/4/5
f 183/1/5 182/1/5 181/1/5
f 184/1/5 182/1/5 183/1/5
f 185/1/5 183/1/5 181/1/5
f 186/1/5 182/1/5 184/1/5
f 187/1/5 185/1/5 181/1/5
f 187/1/5 186/1/5 185/1/5
f 188/1/5 182/1/5 186/1/5
f 188/1/5 186/1/5 187/1/5
f 193/1/5 190/1/5 189/1/5
f 194/1/5 190/1/5 193/1/5
f 195/1/5 192/1/5 191/1/5
f 196/1/5 192/1/5 195/1/5
f 199/3/5 198/3/5 197/3/5
f 200/3/5 198/3/5 199/3/5
f 203/3/5 202/3/5 201/3/5
f 204/3/5 202/3/5 203/3/5
f 207/3/5 206/3/5 205/3/5
f 208/3/5 206/3/5 207/3/5
f 213/4/5 210/4/5 209/4/5
f 214/4/5 210/4/5 213/4/5
f 215/4/5 212/4/5 211/4/5
f 216/4/5 212/4/5 215/4/5
f 217/4/6 218/4/6 221/4/6
f 221/4/6 218/4/6 222/4/6
f 219/4/6 220/4/6 223/4/6
f 223/4/6 220/4/6 224/4/6
f 225/1/6 226/1/6 228/1/6
f 228/1/6 226/1/6 229/1/6
f 227/1/6 228/1/6 231/1/6
f 229/1/6 230/1/6 231/1/6
f 228/1/6 229/1/6 231/1/6
f 231/1/6 230/1/6 232/1/6
f 233/3/6 234/3/6 235/3/6
f 235/3/6 234/3/6 236/3/6
f 233/3/6 235/3/6 237/3/6
f 237/3/6 235/3/6 238/3/6
f 236/3/6 234/3/6 239/3/6
f 239/3/6 234/3/6 240/3/6
f 241/3/6 242/3/6 243/3/6
f 243/3/6 242/3/6 244/3/6
f 245/1/6 246/1/6 249/1/6
f 249/1/6 246/1/6 250/1/6
f 247/1/6 248/1/6 251/1/6
f 251/1/6 248/1/6 252/1/6
f 253/1/6 254/1/6 255/1/6
f 255/1/6 254/1/6 256/1/6
f 256/1/6 254/1/6 257/1/6
f 257/1/6 254/1/6 258/1/6
f 253/1/6 255/1/6 259/1/6
f 255/2/6 256/2/6 259/2/6
f 259/2/6 256/2/6 260/2/6
f 257/2/6 258/2/6 261/2/6
f 258/1/6 254/1/6 262/1/6
f 261/2/6 258/2/6 262/2/6
f 260/1/6 261/1/6 263/1/6
f 259/1/6 260/1/6 263/1/6
f 261/1/6 262/1/6 263/1/6
f 253/1/6 259/1/6 263/1/6
f 262/1/6 254/1/6 264/1/6
f 263/1/6 262/1/6 264/1/6
f 265/4/6 266/4/6 267/4/6
f 267/4/6 266/4/6 268/4/6
