# MagicaVoxel @ Ephtracy

# group
o 

# material
mtllib 210503berobotv2-0.mtl
usemtl palette

# normals
vn -1 0 0
vn 1 0 0
vn 0 0 1
vn 0 0 -1
vn 0 -1 0
vn 0 1 0

# texcoords
vt 0.0292969 0.5
vt 0.494141 0.5
vt 0.748047 0.5
vt 0.767578 0.5
vt 0.775391 0.5

# verts
v -0.3 0.3 0.3
v -0.3 0.3 0.1
v -0.3 0.3 -0.3
v -0.3 0.3 -0.5
v -0.3 0.4 0.3
v -0.3 0.4 0.2
v -0.3 0.4 0.1
v -0.3 0.4 -0.1
v -0.3 0.5 0.3
v -0.3 0.5 0.2
v -0.3 0.5 0.1
v -0.3 0.5 -0.1
v -0.3 0.6 0.3
v -0.3 0.6 0.2
v -0.3 0.6 -0.3
v -0.3 0.6 -0.5
v -0.3 0.7 0.3
v -0.3 0.7 0.2
v -0.3 0.7 0.1
v -0.3 0.8 0.3
v -0.3 0.8 0.2
v -0.2 0.2 0.3
v -0.2 0.2 0.2
v -0.2 0.2 0.1
v -0.2 0.3 0.3
v -0.2 0.3 0.2
v -0.2 0.3 0.1
v -0.2 0.3 -0.3
v -0.2 0.4 0.1
v -0.2 0.4 -0.1
v -0.2 0.4 -0.2
v -0.2 0.5 0.1
v -0.2 0.5 -0.1
v -0.2 0.5 -0.2
v -0.2 0.6 0.1
v -0.2 0.6 -0.1
v -0.2 0.6 -0.3
v -0.1 0.2 0.1
v -0.1 0.2 2.98023e-08
v -0.1 0.3 0.1
v -0.1 0.3 2.98023e-08
v -0.1 0.6 0.1
v -0.1 0.6 -0.1
v -0.1 0.7 0.1
v -0.1 0.7 -0.1
v -2.98023e-08 0.6 -0.1
v -2.98023e-08 0.6 -0.2
v -2.98023e-08 0.7 -0.1
v -2.98023e-08 0.7 -0.2
v 0.1 0.2 0.3
v 0.1 0.2 0.2
v 0.1 0.2 2.98023e-08
v 0.1 0.3 0.3
v 0.1 0.3 0.2
v 0.1 0.3 2.98023e-08
v 0.1 0.3 -0.3
v 0.1 0.3 -0.4
v 0.1 0.4 0.3
v 0.1 0.4 0.2
v 0.1 0.5 0.3
v 0.1 0.5 0.2
v 0.1 0.5 -0.1
v 0.1 0.5 -0.2
v 0.1 0.6 0.3
v 0.1 0.6 0.2
v 0.1 0.6 0.1
v 0.1 0.6 -0.1
v 0.1 0.6 -0.2
v 0.1 0.6 -0.3
v 0.1 0.6 -0.4
v 0.1 0.7 0.3
v 0.1 0.7 0.2
v 0.1 0.7 0.1
v 0.1 0.7 -0.1
v 0.1 0.8 0.3
v 0.1 0.8 0.2
v 0.2 0.3 -0.4
v 0.2 0.3 -0.5
v 0.2 0.6 -0.4
v 0.2 0.6 -0.5
v -0.1 0.3 -0.4
v -0.1 0.3 -0.5
v -0.1 0.6 -0.4
v -0.1 0.6 -0.5
v -2.98023e-08 0.2 0.3
v -2.98023e-08 0.2 0.2
v -2.98023e-08 0.2 2.98023e-08
v -2.98023e-08 0.3 0.3
v -2.98023e-08 0.3 0.2
v -2.98023e-08 0.3 2.98023e-08
v -2.98023e-08 0.3 -0.3
v -2.98023e-08 0.3 -0.4
v -2.98023e-08 0.4 0.3
v -2.98023e-08 0.4 0.2
v -2.98023e-08 0.5 0.3
v -2.98023e-08 0.5 0.2
v -2.98023e-08 0.5 -0.1
v -2.98023e-08 0.5 -0.2
v -2.98023e-08 0.6 0.3
v -2.98023e-08 0.6 0.2
v -2.98023e-08 0.6 0.1
v -2.98023e-08 0.6 -0.1
v -2.98023e-08 0.6 -0.2
v -2.98023e-08 0.6 -0.3
v -2.98023e-08 0.6 -0.4
v -2.98023e-08 0.7 0.3
v -2.98023e-08 0.7 0.2
v -2.98023e-08 0.7 0.1
v -2.98023e-08 0.7 -0.1
v -2.98023e-08 0.8 0.3
v -2.98023e-08 0.8 0.2
v 0.1 0.6 -0.1
v 0.1 0.6 -0.2
v 0.1 0.7 -0.1
v 0.1 0.7 -0.2
v 0.2 0.2 0.1
v 0.2 0.2 2.98023e-08
v 0.2 0.3 0.1
v 0.2 0.3 2.98023e-08
v 0.2 0.6 0.1
v 0.2 0.6 -0.1
v 0.2 0.7 0.1
v 0.2 0.7 -0.1
v 0.3 0.2 0.3
v 0.3 0.2 0.2
v 0.3 0.2 0.1
v 0.3 0.3 0.3
v 0.3 0.3 0.2
v 0.3 0.3 0.1
v 0.3 0.3 -0.3
v 0.3 0.4 0.1
v 0.3 0.4 -0.1
v 0.3 0.4 -0.2
v 0.3 0.5 0.1
v 0.3 0.5 -0.1
v 0.3 0.5 -0.2
v 0.3 0.6 0.1
v 0.3 0.6 -0.1
v 0.3 0.6 -0.3
v 0.4 0.3 0.3
v 0.4 0.3 0.1
v 0.4 0.3 -0.3
v 0.4 0.3 -0.5
v 0.4 0.4 0.3
v 0.4 0.4 0.2
v 0.4 0.4 0.1
v 0.4 0.4 -0.1
v 0.4 0.5 0.3
v 0.4 0.5 0.2
v 0.4 0.5 0.1
v 0.4 0.5 -0.1
v 0.4 0.6 0.3
v 0.4 0.6 0.2
v 0.4 0.6 -0.3
v 0.4 0.6 -0.5
v 0.4 0.7 0.3
v 0.4 0.7 0.2
v 0.4 0.7 0.1
v 0.4 0.8 0.3
v 0.4 0.8 0.2
v -0.3 0.3 0.3
v -0.3 0.4 0.3
v -0.3 0.5 0.3
v -0.3 0.6 0.3
v -0.3 0.7 0.3
v -0.3 0.8 0.3
v -0.2 0.2 0.3
v -0.2 0.3 0.3
v -2.98023e-08 0.2 0.3
v -2.98023e-08 0.3 0.3
v -2.98023e-08 0.4 0.3
v -2.98023e-08 0.5 0.3
v -2.98023e-08 0.6 0.3
v -2.98023e-08 0.7 0.3
v -2.98023e-08 0.8 0.3
v 0.1 0.2 0.3
v 0.1 0.3 0.3
v 0.1 0.4 0.3
v 0.1 0.5 0.3
v 0.1 0.6 0.3
v 0.1 0.7 0.3
v 0.1 0.8 0.3
v 0.3 0.2 0.3
v 0.3 0.3 0.3
v 0.4 0.3 0.3
v 0.4 0.4 0.3
v 0.4 0.5 0.3
v 0.4 0.6 0.3
v 0.4 0.7 0.3
v 0.4 0.8 0.3
v -2.98023e-08 0.6 -0.1
v -2.98023e-08 0.7 -0.1
v 0.1 0.6 -0.1
v 0.1 0.7 -0.1
v -0.3 0.3 -0.3
v -0.3 0.6 -0.3
v -0.2 0.3 -0.3
v -0.2 0.6 -0.3
v 0.3 0.3 -0.3
v 0.3 0.6 -0.3
v 0.4 0.3 -0.3
v 0.4 0.6 -0.3
v -0.3 0.7 0.2
v -0.3 0.8 0.2
v -2.98023e-08 0.7 0.2
v -2.98023e-08 0.8 0.2
v 0.1 0.7 0.2
v 0.1 0.8 0.2
v 0.4 0.7 0.2
v 0.4 0.8 0.2
v -0.3 0.3 0.1
v -0.3 0.4 0.1
v -0.3 0.5 0.1
v -0.3 0.7 0.1
v -0.2 0.2 0.1
v -0.2 0.3 0.1
v -0.2 0.4 0.1
v -0.2 0.5 0.1
v -0.2 0.6 0.1
v -0.1 0.2 0.1
v -0.1 0.3 0.1
v -0.1 0.6 0.1
v -0.1 0.7 0.1
v 0.2 0.2 0.1
v 0.2 0.3 0.1
v 0.2 0.6 0.1
v 0.2 0.7 0.1
v 0.3 0.2 0.1
v 0.3 0.3 0.1
v 0.3 0.4 0.1
v 0.3 0.5 0.1
v 0.3 0.6 0.1
v 0.4 0.3 0.1
v 0.4 0.4 0.1
v 0.4 0.5 0.1
v 0.4 0.7 0.1
v -0.1 0.2 2.98023e-08
v -0.1 0.3 2.98023e-08
v -2.98023e-08 0.2 2.98023e-08
v -2.98023e-08 0.3 2.98023e-08
v 0.1 0.2 2.98023e-08
v 0.1 0.3 2.98023e-08
v 0.2 0.2 2.98023e-08
v 0.2 0.3 2.98023e-08
v -0.3 0.4 -0.1
v -0.3 0.5 -0.1
v -0.2 0.4 -0.1
v -0.2 0.5 -0.1
v -0.1 0.6 -0.1
v -0.1 0.7 -0.1
v -2.98023e-08 0.6 -0.1
v -2.98023e-08 0.7 -0.1
v 0.1 0.6 -0.1
v 0.1 0.7 -0.1
v 0.2 0.6 -0.1
v 0.2 0.7 -0.1
v 0.3 0.4 -0.1
v 0.3 0.5 -0.1
v 0.4 0.4 -0.1
v 0.4 0.5 -0.1
v -2.98023e-08 0.6 -0.2
v -2.98023e-08 0.7 -0.2
v 0.1 0.6 -0.2
v 0.1 0.7 -0.2
v -0.1 0.3 -0.4
v -0.1 0.6 -0.4
v -2.98023e-08 0.3 -0.4
v -2.98023e-08 0.6 -0.4
v 0.1 0.3 -0.4
v 0.1 0.6 -0.4
v 0.2 0.3 -0.4
v 0.2 0.6 -0.4
v -0.3 0.3 -0.5
v -0.3 0.6 -0.5
v -0.2 0.3 -0.5
v -0.2 0.6 -0.5
v -0.1 0.3 -0.5
v -0.1 0.6 -0.5
v 0.2 0.3 -0.5
v 0.2 0.6 -0.5
v 0.3 0.3 -0.5
v 0.3 0.6 -0.5
v 0.4 0.3 -0.5
v 0.4 0.6 -0.5
v -0.2 0.2 0.3
v -2.98023e-08 0.2 0.3
v 0.1 0.2 0.3
v 0.3 0.2 0.3
v -0.2 0.2 0.2
v -2.98023e-08 0.2 0.2
v 0.1 0.2 0.2
v 0.3 0.2 0.2
v -0.2 0.2 0.1
v -0.1 0.2 0.1
v 0.2 0.2 0.1
v 0.3 0.2 0.1
v -0.1 0.2 2.98023e-08
v -2.98023e-08 0.2 2.98023e-08
v 0.1 0.2 2.98023e-08
v 0.2 0.2 2.98023e-08
v -0.3 0.3 0.3
v -0.2 0.3 0.3
v 0.3 0.3 0.3
v 0.4 0.3 0.3
v -0.2 0.3 0.2
v 0.3 0.3 0.2
v -0.3 0.3 0.1
v -0.2 0.3 0.1
v -0.1 0.3 0.1
v 0.2 0.3 0.1
v 0.3 0.3 0.1
v 0.4 0.3 0.1
v -0.1 0.3 2.98023e-08
v -2.98023e-08 0.3 2.98023e-08
v 0.1 0.3 2.98023e-08
v 0.2 0.3 2.98023e-08
v -0.3 0.3 -0.3
v -0.2 0.3 -0.3
v -0.1 0.3 -0.3
v -2.98023e-08 0.3 -0.3
v 0.1 0.3 -0.3
v 0.2 0.3 -0.3
v 0.3 0.3 -0.3
v 0.4 0.3 -0.3
v -0.2 0.3 -0.4
v -0.1 0.3 -0.4
v -2.98023e-08 0.3 -0.4
v 0.1 0.3 -0.4
v 0.2 0.3 -0.4
v 0.3 0.3 -0.4
v -0.3 0.3 -0.5
v -0.2 0.3 -0.5
v -0.1 0.3 -0.5
v 0.2 0.3 -0.5
v 0.3 0.3 -0.5
v 0.4 0.3 -0.5
v -0.3 0.4 0.1
v -0.2 0.4 0.1
v 0.3 0.4 0.1
v 0.4 0.4 0.1
v -0.3 0.4 -0.1
v -0.2 0.4 -0.1
v 0.3 0.4 -0.1
v 0.4 0.4 -0.1
v -2.98023e-08 0.6 -0.1
v 0.1 0.6 -0.1
v -2.98023e-08 0.6 -0.2
v 0.1 0.6 -0.2
v -0.3 0.5 0.1
v -0.2 0.5 0.1
v 0.3 0.5 0.1
v 0.4 0.5 0.1
v -0.3 0.5 -0.1
v -0.2 0.5 -0.1
v 0.3 0.5 -0.1
v 0.4 0.5 -0.1
v -0.2 0.6 0.1
v -0.1 0.6 0.1
v 0.2 0.6 0.1
v 0.3 0.6 0.1
v -0.2 0.6 -0.1
v -0.1 0.6 -0.1
v -2.98023e-08 0.6 -0.1
v 0.1 0.6 -0.1
v 0.2 0.6 -0.1
v 0.3 0.6 -0.1
v -0.1 0.6 -0.2
v -2.98023e-08 0.6 -0.2
v 0.1 0.6 -0.2
v 0.2 0.6 -0.2
v -0.3 0.6 -0.3
v -0.2 0.6 -0.3
v -0.1 0.6 -0.3
v -2.98023e-08 0.6 -0.3
v 0.1 0.6 -0.3
v 0.2 0.6 -0.3
v 0.3 0.6 -0.3
v 0.4 0.6 -0.3
v -0.2 0.6 -0.4
v -0.1 0.6 -0.4
v -2.98023e-08 0.6 -0.4
v 0.1 0.6 -0.4
v 0.2 0.6 -0.4
v 0.3 0.6 -0.4
v -0.3 0.6 -0.5
v -0.2 0.6 -0.5
v -0.1 0.6 -0.5
v 0.2 0.6 -0.5
v 0.3 0.6 -0.5
v 0.4 0.6 -0.5
v -0.3 0.7 0.2
v -2.98023e-08 0.7 0.2
v 0.1 0.7 0.2
v 0.4 0.7 0.2
v -0.3 0.7 0.1
v -0.1 0.7 0.1
v -2.98023e-08 0.7 0.1
v 0.1 0.7 0.1
v 0.2 0.7 0.1
v 0.4 0.7 0.1
v -0.1 0.7 -0.1
v -2.98023e-08 0.7 -0.1
v 0.1 0.7 -0.1
v 0.2 0.7 -0.1
v -2.98023e-08 0.7 -0.2
v 0.1 0.7 -0.2
v -0.3 0.8 0.3
v -2.98023e-08 0.8 0.3
v 0.1 0.8 0.3
v 0.4 0.8 0.3
v -0.3 0.8 0.2
v -2.98023e-08 0.8 0.2
v 0.1 0.8 0.2
v 0.4 0.8 0.2

# faces
f 5/5/1 2/5/1 1/5/1
f 6/5/1 2/5/1 5/5/1
f 7/5/1 2/5/1 6/5/1
f 9/4/1 6/4/1 5/4/1
f 10/3/1 8/3/1 7/3/1
f 10/4/1 6/4/1 9/4/1
f 10/3/1 7/3/1 6/3/1
f 11/3/1 8/3/1 10/3/1
f 12/3/1 8/3/1 11/3/1
f 13/5/1 10/5/1 9/5/1
f 13/5/1 11/5/1 10/5/1
f 14/5/1 11/5/1 13/5/1
f 15/5/1 4/5/1 3/5/1
f 16/5/1 4/5/1 15/5/1
f 17/4/1 14/4/1 13/4/1
f 18/5/1 11/5/1 14/5/1
f 18/4/1 14/4/1 17/4/1
f 19/5/1 11/5/1 18/5/1
f 20/5/1 18/5/1 17/5/1
f 21/5/1 18/5/1 20/5/1
f 25/4/1 23/4/1 22/4/1
f 26/5/1 24/5/1 23/5/1
f 26/4/1 23/4/1 25/4/1
f 27/5/1 24/5/1 26/5/1
f 29/5/1 28/5/1 27/5/1
f 30/5/1 28/5/1 29/5/1
f 31/5/1 28/5/1 30/5/1
f 33/3/1 31/3/1 30/3/1
f 34/5/1 28/5/1 31/5/1
f 34/3/1 31/3/1 33/3/1
f 35/2/1 33/2/1 32/2/1
f 36/5/1 34/5/1 33/5/1
f 36/2/1 33/2/1 35/2/1
f 37/5/1 28/5/1 34/5/1
f 37/5/1 34/5/1 36/5/1
f 40/5/1 39/5/1 38/5/1
f 41/5/1 39/5/1 40/5/1
f 44/1/1 43/1/1 42/1/1
f 45/1/1 43/1/1 44/1/1
f 48/1/1 47/1/1 46/1/1
f 49/1/1 47/1/1 48/1/1
f 53/4/1 51/4/1 50/4/1
f 54/5/1 52/5/1 51/5/1
f 54/4/1 51/4/1 53/4/1
f 55/5/1 52/5/1 54/5/1
f 58/5/1 54/5/1 53/5/1
f 58/5/1 55/5/1 54/5/1
f 58/5/1 56/5/1 55/5/1
f 59/5/1 56/5/1 58/5/1
f 60/4/1 59/4/1 58/4/1
f 61/5/1 56/5/1 59/5/1
f 61/4/1 59/4/1 60/4/1
f 62/5/1 56/5/1 61/5/1
f 63/5/1 56/5/1 62/5/1
f 64/5/1 61/5/1 60/5/1
f 64/5/1 62/5/1 61/5/1
f 65/5/1 62/5/1 64/5/1
f 66/5/1 62/5/1 65/5/1
f 67/2/1 63/2/1 62/2/1
f 67/5/1 62/5/1 66/5/1
f 68/5/1 56/5/1 63/5/1
f 68/2/1 63/2/1 67/2/1
f 69/3/1 57/3/1 56/3/1
f 69/5/1 56/5/1 68/5/1
f 70/3/1 57/3/1 69/3/1
f 71/4/1 65/4/1 64/4/1
f 72/5/1 66/5/1 65/5/1
f 72/4/1 65/4/1 71/4/1
f 73/1/1 67/1/1 66/1/1
f 73/5/1 66/5/1 72/5/1
f 74/1/1 67/1/1 73/1/1
f 75/5/1 72/5/1 71/5/1
f 76/5/1 72/5/1 75/5/1
f 79/3/1 78/3/1 77/3/1
f 80/3/1 78/3/1 79/3/1
f 81/3/2 82/3/2 83/3/2
f 83/3/2 82/3/2 84/3/2
f 85/4/2 86/4/2 88/4/2
f 86/5/2 87/5/2 89/5/2
f 88/4/2 86/4/2 89/4/2
f 89/5/2 87/5/2 90/5/2
f 88/5/2 89/5/2 93/5/2
f 89/5/2 90/5/2 93/5/2
f 90/5/2 91/5/2 93/5/2
f 93/5/2 91/5/2 94/5/2
f 93/4/2 94/4/2 95/4/2
f 94/5/2 91/5/2 96/5/2
f 95/4/2 94/4/2 96/4/2
f 96/5/2 91/5/2 97/5/2
f 97/5/2 91/5/2 98/5/2
f 95/5/2 96/5/2 99/5/2
f 96/5/2 97/5/2 99/5/2
f 99/5/2 97/5/2 100/5/2
f 100/5/2 97/5/2 101/5/2
f 97/2/2 98/2/2 102/2/2
f 101/5/2 97/5/2 102/5/2
f 98/5/2 91/5/2 103/5/2
f 102/2/2 98/2/2 103/2/2
f 91/3/2 92/3/2 104/3/2
f 103/5/2 91/5/2 104/5/2
f 104/3/2 92/3/2 105/3/2
f 99/4/2 100/4/2 106/4/2
f 100/5/2 101/5/2 107/5/2
f 106/4/2 100/4/2 107/4/2
f 101/1/2 102/1/2 108/1/2
f 107/5/2 101/5/2 108/5/2
f 108/1/2 102/1/2 109/1/2
f 106/5/2 107/5/2 110/5/2
f 110/5/2 107/5/2 111/5/2
f 112/1/2 113/1/2 114/1/2
f 114/1/2 113/1/2 115/1/2
f 116/5/2 117/5/2 118/5/2
f 118/5/2 117/5/2 119/5/2
f 120/1/2 121/1/2 122/1/2
f 122/1/2 121/1/2 123/1/2
f 124/4/2 125/4/2 127/4/2
f 125/5/2 126/5/2 128/5/2
f 127/4/2 125/4/2 128/4/2
f 128/5/2 126/5/2 129/5/2
f 129/5/2 130/5/2 131/5/2
f 131/5/2 130/5/2 132/5/2
f 132/5/2 130/5/2 133/5/2
f 132/3/2 133/3/2 135/3/2
f 133/5/2 130/5/2 136/5/2
f 135/3/2 133/3/2 136/3/2
f 134/2/2 135/2/2 137/2/2
f 135/5/2 136/5/2 138/5/2
f 137/2/2 135/2/2 138/2/2
f 136/5/2 130/5/2 139/5/2
f 138/5/2 136/5/2 139/5/2
f 140/5/2 141/5/2 144/5/2
f 144/5/2 141/5/2 145/5/2
f 145/5/2 141/5/2 146/5/2
f 144/4/2 145/4/2 148/4/2
f 146/3/2 147/3/2 149/3/2
f 148/4/2 145/4/2 149/4/2
f 145/3/2 146/3/2 149/3/2
f 149/3/2 147/3/2 150/3/2
f 150/3/2 147/3/2 151/3/2
f 148/5/2 149/5/2 152/5/2
f 149/5/2 150/5/2 152/5/2
f 152/5/2 150/5/2 153/5/2
f 142/5/2 143/5/2 154/5/2
f 154/5/2 143/5/2 155/5/2
f 152/4/2 153/4/2 156/4/2
f 153/5/2 150/5/2 157/5/2
f 156/4/2 153/4/2 157/4/2
f 157/5/2 150/5/2 158/5/2
f 156/5/2 157/5/2 159/5/2
f 159/5/2 157/5/2 160/5/2
f 168/5/3 162/5/3 161/5/3
f 169/4/3 168/4/3 167/4/3
f 170/5/3 162/5/3 168/5/3
f 170/4/3 168/4/3 169/4/3
f 171/4/3 163/4/3 162/4/3
f 171/5/3 162/5/3 170/5/3
f 172/5/3 164/5/3 163/5/3
f 172/4/3 163/4/3 171/4/3
f 173/4/3 165/4/3 164/4/3
f 173/5/3 164/5/3 172/5/3
f 174/5/3 166/5/3 165/5/3
f 174/4/3 165/4/3 173/4/3
f 175/5/3 166/5/3 174/5/3
f 183/4/3 177/4/3 176/4/3
f 184/5/3 178/5/3 177/5/3
f 184/4/3 177/4/3 183/4/3
f 185/5/3 178/5/3 184/5/3
f 186/4/3 179/4/3 178/4/3
f 186/5/3 178/5/3 185/5/3
f 187/5/3 180/5/3 179/5/3
f 187/4/3 179/4/3 186/4/3
f 188/4/3 181/4/3 180/4/3
f 188/5/3 180/5/3 187/5/3
f 189/5/3 182/5/3 181/5/3
f 189/4/3 181/4/3 188/4/3
f 190/5/3 182/5/3 189/5/3
f 193/1/3 192/1/3 191/1/3
f 194/1/3 192/1/3 193/1/3
f 197/5/3 196/5/3 195/5/3
f 198/5/3 196/5/3 197/5/3
f 201/5/3 200/5/3 199/5/3
f 202/5/3 200/5/3 201/5/3
f 203/5/4 204/5/4 205/5/4
f 205/5/4 204/5/4 206/5/4
f 207/5/4 208/5/4 209/5/4
f 209/5/4 208/5/4 210/5/4
f 211/5/4 212/5/4 216/5/4
f 216/5/4 212/5/4 217/5/4
f 213/5/4 214/5/4 218/5/4
f 218/5/4 214/5/4 219/5/4
f 215/5/4 216/5/4 220/5/4
f 220/5/4 216/5/4 221/5/4
f 219/5/4 214/5/4 222/5/4
f 222/5/4 214/5/4 223/5/4
f 224/5/4 225/5/4 228/5/4
f 228/5/4 225/5/4 229/5/4
f 226/5/4 227/5/4 232/5/4
f 229/5/4 230/5/4 233/5/4
f 233/5/4 230/5/4 234/5/4
f 231/5/4 232/5/4 235/5/4
f 232/5/4 227/5/4 236/5/4
f 235/5/4 232/5/4 236/5/4
f 237/5/4 238/5/4 239/5/4
f 239/5/4 238/5/4 240/5/4
f 241/5/4 242/5/4 243/5/4
f 243/5/4 242/5/4 244/5/4
f 245/3/4 246/3/4 247/3/4
f 247/3/4 246/3/4 248/3/4
f 249/1/4 250/1/4 251/1/4
f 251/1/4 250/1/4 252/1/4
f 253/1/4 254/1/4 255/1/4
f 255/1/4 254/1/4 256/1/4
f 257/3/4 258/3/4 259/3/4
f 259/3/4 258/3/4 260/3/4
f 261/1/4 262/1/4 263/1/4
f 263/1/4 262/1/4 264/1/4
f 265/3/4 266/3/4 267/3/4
f 267/3/4 266/3/4 268/3/4
f 269/3/4 270/3/4 271/3/4
f 271/3/4 270/3/4 272/3/4
f 273/5/4 274/5/4 275/5/4
f 275/5/4 274/5/4 276/5/4
f 275/3/4 276/3/4 277/3/4
f 277/3/4 276/3/4 278/3/4
f 279/3/4 280/3/4 281/3/4
f 281/3/4 280/3/4 282/3/4
f 281/5/4 282/5/4 283/5/4
f 283/5/4 282/5/4 284/5/4
f 289/4/5 286/4/5 285/4/5
f 290/4/5 286/4/5 289/4/5
f 291/4/5 288/4/5 287/4/5
f 292/4/5 288/4/5 291/4/5
f 293/5/5 290/5/5 289/5/5
f 294/5/5 290/5/5 293/5/5
f 295/5/5 292/5/5 291/5/5
f 296/5/5 292/5/5 295/5/5
f 297/5/5 290/5/5 294/5/5
f 298/5/5 290/5/5 297/5/5
f 299/5/5 295/5/5 291/5/5
f 300/5/5 295/5/5 299/5/5
f 305/5/5 302/5/5 301/5/5
f 306/5/5 304/5/5 303/5/5
f 307/5/5 305/5/5 301/5/5
f 308/5/5 305/5/5 307/5/5
f 311/5/5 304/5/5 306/5/5
f 312/5/5 304/5/5 311/5/5
f 313/5/5 309/5/5 308/5/5
f 316/5/5 311/5/5 310/5/5
f 318/5/5 314/5/5 313/5/5
f 318/5/5 313/5/5 308/5/5
f 319/5/5 314/5/5 318/5/5
f 320/5/5 314/5/5 319/5/5
f 321/5/5 316/5/5 315/5/5
f 322/5/5 311/5/5 316/5/5
f 322/5/5 316/5/5 321/5/5
f 323/5/5 311/5/5 322/5/5
f 325/5/5 318/5/5 317/5/5
f 325/5/5 319/5/5 318/5/5
f 326/3/5 320/3/5 319/3/5
f 326/5/5 319/5/5 325/5/5
f 327/3/5 320/3/5 326/3/5
f 328/3/5 322/3/5 321/3/5
f 329/5/5 324/5/5 323/5/5
f 329/3/5 322/3/5 328/3/5
f 329/5/5 323/5/5 322/5/5
f 330/5/5 324/5/5 329/5/5
f 331/5/5 325/5/5 317/5/5
f 332/3/5 326/3/5 325/3/5
f 332/5/5 325/5/5 331/5/5
f 333/3/5 326/3/5 332/3/5
f 334/3/5 330/3/5 329/3/5
f 335/5/5 324/5/5 330/5/5
f 335/3/5 330/3/5 334/3/5
f 336/5/5 324/5/5 335/5/5
f 341/3/5 338/3/5 337/3/5
f 342/3/5 338/3/5 341/3/5
f 343/3/5 340/3/5 339/3/5
f 344/3/5 340/3/5 343/3/5
f 347/1/5 346/1/5 345/1/5
f 348/1/5 346/1/5 347/1/5
f 349/3/6 350/3/6 353/3/6
f 353/3/6 350/3/6 354/3/6
f 351/3/6 352/3/6 355/3/6
f 355/3/6 352/3/6 356/3/6
f 357/2/6 358/2/6 361/2/6
f 361/2/6 358/2/6 362/2/6
f 359/2/6 360/2/6 365/2/6
f 365/2/6 360/2/6 366/2/6
f 362/2/6 363/2/6 367/2/6
f 361/5/6 362/5/6 367/5/6
f 367/2/6 363/2/6 368/2/6
f 364/2/6 365/2/6 369/2/6
f 365/5/6 366/5/6 370/5/6
f 369/2/6 365/2/6 370/2/6
f 367/5/6 368/5/6 372/5/6
f 361/5/6 367/5/6 372/5/6
f 372/5/6 368/5/6 373/5/6
f 373/5/6 368/5/6 374/5/6
f 369/5/6 370/5/6 375/5/6
f 370/5/6 366/5/6 376/5/6
f 375/5/6 370/5/6 376/5/6
f 376/5/6 366/5/6 377/5/6
f 371/5/6 372/5/6 379/5/6
f 372/5/6 373/5/6 379/5/6
f 373/3/6 374/3/6 380/3/6
f 379/5/6 373/5/6 380/5/6
f 380/3/6 374/3/6 381/3/6
f 375/3/6 376/3/6 382/3/6
f 376/5/6 377/5/6 383/5/6
f 382/3/6 376/3/6 383/3/6
f 377/5/6 378/5/6 383/5/6
f 383/5/6 378/5/6 384/5/6
f 371/5/6 379/5/6 385/5/6
f 379/3/6 380/3/6 386/3/6
f 385/5/6 379/5/6 386/5/6
f 386/3/6 380/3/6 387/3/6
f 383/3/6 384/3/6 388/3/6
f 384/5/6 378/5/6 389/5/6
f 388/3/6 384/3/6 389/3/6
f 389/5/6 378/5/6 390/5/6
f 391/5/6 392/5/6 395/5/6
f 395/5/6 392/5/6 396/5/6
f 396/5/6 392/5/6 397/5/6
f 393/5/6 394/5/6 398/5/6
f 398/5/6 394/5/6 399/5/6
f 399/5/6 394/5/6 400/5/6
f 396/1/6 397/1/6 401/1/6
f 401/1/6 397/1/6 402/1/6
f 398/1/6 399/1/6 403/1/6
f 403/1/6 399/1/6 404/1/6
f 402/1/6 403/1/6 405/1/6
f 405/1/6 403/1/6 406/1/6
f 407/5/6 408/5/6 411/5/6
f 411/5/6 408/5/6 412/5/6
f 409/5/6 410/5/6 413/5/6
f 413/5/6 410/5/6 414/5/6
