# MagicaVoxel @ Ephtracy

# group
o 

# material
mtllib 210503 colorrobotv2-1.mtl
usemtl palette

# normals
vn -1 0 0
vn 1 0 0
vn 0 0 1
vn 0 0 -1
vn 0 -1 0
vn 0 1 0

# texcoords
vt 0.494141 0.5
vt 0.748047 0.5
vt 0.775391 0.5

# verts
v -0.1 0.4 0.4
v -0.1 0.4 0.1
v -0.1 0.4 -0.1
v -0.1 0.5 0.1
v -0.1 0.5 -0.1
v -0.1 0.6 0.4
v -0.1 0.6 0.1
v -1.49012e-08 0.3 0.1
v -1.49012e-08 0.3 -0.1
v -1.49012e-08 0.4 0.1
v -1.49012e-08 0.4 -0.1
v -1.49012e-08 0.4 -0.2
v -1.49012e-08 0.5 -0.1
v -1.49012e-08 0.5 -0.2
v 0.1 0.3 -0.1
v 0.1 0.3 -0.3
v 0.1 0.4 0.3
v 0.1 0.4 0.2
v 0.1 0.4 -0.1
v 0.1 0.4 -0.2
v 0.1 0.5 0.4
v 0.1 0.5 0.3
v 0.1 0.5 0.1
v 0.1 0.5 -0.1
v 0.1 0.5 -0.2
v 0.1 0.6 0.4
v 0.1 0.6 0.2
v 0.1 0.6 0.1
v 0.1 0.6 -0.3
v 0.3 0.4 -0.3
v 0.3 0.4 -0.4
v 0.3 0.5 -0.3
v 0.3 0.5 -0.4
v 0.4 0.3 -0.2
v 0.4 0.3 -0.3
v 0.4 0.3 -0.4
v 0.4 0.4 -0.2
v 0.4 0.4 -0.3
v 0.4 0.4 -0.4
v 0.4 0.5 -0.2
v 0.4 0.5 -0.3
v 0.4 0.5 -0.4
v 0.4 0.6 -0.2
v 0.4 0.6 -0.3
v 0.4 0.6 -0.4
v -1.49012e-08 0.4 0.4
v -1.49012e-08 0.4 0.2
v -1.49012e-08 0.6 0.4
v -1.49012e-08 0.6 0.2
v 0.1 0.3 0.1
v 0.1 0.3 -0.1
v 0.1 0.4 0.1
v 0.1 0.4 -0.1
v 0.2 0.3 -0.2
v 0.2 0.3 -0.3
v 0.2 0.4 0.3
v 0.2 0.4 0.1
v 0.2 0.4 0
v 0.2 0.4 -0.2
v 0.2 0.4 -0.3
v 0.2 0.5 0.4
v 0.2 0.5 0.3
v 0.2 0.5 0
v 0.2 0.5 -0.1
v 0.2 0.5 -0.2
v 0.2 0.5 -0.3
v 0.2 0.6 0.4
v 0.2 0.6 0.1
v 0.2 0.6 -0.1
v 0.2 0.6 -0.2
v 0.2 0.6 -0.3
v 0.3 0.3 -0.1
v 0.3 0.3 -0.2
v 0.3 0.4 0
v 0.3 0.4 -0.1
v 0.3 0.4 -0.2
v 0.3 0.5 0
v 0.3 0.5 -0.1
v 0.3 0.5 -0.2
v 0.3 0.6 -0.1
v 0.3 0.6 -0.2
v 0.4 0.4 -0.1
v 0.4 0.4 -0.2
v 0.4 0.5 -0.1
v 0.4 0.5 -0.2
v 0.5 0.3 -0.2
v 0.5 0.3 -0.3
v 0.5 0.3 -0.4
v 0.5 0.6 -0.2
v 0.5 0.6 -0.3
v 0.5 0.6 -0.4
v -0.1 0.4 0.4
v -0.1 0.6 0.4
v -1.49012e-08 0.4 0.4
v -1.49012e-08 0.6 0.4
v 0.1 0.5 0.4
v 0.1 0.6 0.4
v 0.2 0.5 0.4
v 0.2 0.6 0.4
v 0.1 0.4 0.3
v 0.1 0.5 0.3
v 0.2 0.4 0.3
v 0.2 0.5 0.3
v -1.49012e-08 0.4 0.2
v -1.49012e-08 0.6 0.2
v 0.1 0.4 0.2
v 0.1 0.6 0.2
v -1.49012e-08 0.3 0.1
v -1.49012e-08 0.4 0.1
v 0.1 0.3 0.1
v 0.1 0.4 0.1
v 0.2 0.4 0
v 0.2 0.5 0
v 0.3 0.4 0
v 0.3 0.5 0
v 0.1 0.3 -0.1
v 0.1 0.4 -0.1
v 0.2 0.5 -0.1
v 0.2 0.6 -0.1
v 0.3 0.3 -0.1
v 0.3 0.4 -0.1
v 0.3 0.5 -0.1
v 0.3 0.6 -0.1
v 0.4 0.4 -0.1
v 0.4 0.5 -0.1
v 0.4 0.3 -0.2
v 0.4 0.4 -0.2
v 0.4 0.5 -0.2
v 0.4 0.6 -0.2
v 0.5 0.3 -0.2
v 0.5 0.6 -0.2
v -0.1 0.5 0.1
v -0.1 0.6 0.1
v -1.49012e-08 0.5 0.1
v 0.1 0.5 0.1
v 0.1 0.6 0.1
v -0.1 0.4 -0.1
v -0.1 0.5 -0.1
v -1.49012e-08 0.3 -0.1
v -1.49012e-08 0.4 -0.1
v -1.49012e-08 0.5 -0.1
v 0.1 0.3 -0.1
v 0.1 0.4 -0.1
v -1.49012e-08 0.4 -0.2
v -1.49012e-08 0.5 -0.2
v 0.1 0.4 -0.2
v 0.1 0.5 -0.2
v 0.2 0.3 -0.2
v 0.2 0.4 -0.2
v 0.2 0.5 -0.2
v 0.2 0.6 -0.2
v 0.3 0.3 -0.2
v 0.3 0.4 -0.2
v 0.3 0.5 -0.2
v 0.3 0.6 -0.2
v 0.1 0.3 -0.3
v 0.1 0.6 -0.3
v 0.2 0.3 -0.3
v 0.2 0.4 -0.3
v 0.2 0.5 -0.3
v 0.2 0.6 -0.3
v 0.3 0.4 -0.3
v 0.3 0.5 -0.3
v 0.3 0.4 -0.4
v 0.3 0.5 -0.4
v 0.4 0.3 -0.4
v 0.4 0.4 -0.4
v 0.4 0.5 -0.4
v 0.4 0.6 -0.4
v 0.5 0.3 -0.4
v 0.5 0.6 -0.4
v -1.49012e-08 0.3 0.1
v 0.1 0.3 0.1
v -1.49012e-08 0.3 -0.1
v 0.1 0.3 -0.1
v 0.3 0.3 -0.1
v 0.2 0.3 -0.2
v 0.3 0.3 -0.2
v 0.4 0.3 -0.2
v 0.5 0.3 -0.2
v 0.1 0.3 -0.3
v 0.2 0.3 -0.3
v 0.4 0.3 -0.3
v 0.5 0.3 -0.3
v 0.4 0.3 -0.4
v 0.5 0.3 -0.4
v -0.1 0.4 0.4
v -1.49012e-08 0.4 0.4
v 0.1 0.4 0.3
v 0.2 0.4 0.3
v -1.49012e-08 0.4 0.2
v 0.1 0.4 0.2
v -0.1 0.4 0.1
v -1.49012e-08 0.4 0.1
v 0.1 0.4 0.1
v 0.2 0.4 0.1
v 0.2 0.4 0
v 0.3 0.4 0
v -0.1 0.4 -0.1
v -1.49012e-08 0.4 -0.1
v 0.1 0.4 -0.1
v 0.3 0.4 -0.1
v 0.4 0.4 -0.1
v -1.49012e-08 0.4 -0.2
v 0.1 0.4 -0.2
v 0.2 0.4 -0.2
v 0.3 0.4 -0.2
v 0.4 0.4 -0.2
v 0.2 0.4 -0.3
v 0.3 0.4 -0.3
v 0.4 0.4 -0.3
v 0.3 0.4 -0.4
v 0.4 0.4 -0.4
v 0.1 0.5 0.4
v 0.2 0.5 0.4
v 0.1 0.5 0.3
v 0.2 0.5 0.3
v -0.1 0.5 0.1
v -1.49012e-08 0.5 0.1
v 0.1 0.5 0.1
v 0.2 0.5 0
v 0.3 0.5 0
v -0.1 0.5 -0.1
v -1.49012e-08 0.5 -0.1
v 0.1 0.5 -0.1
v 0.2 0.5 -0.1
v 0.3 0.5 -0.1
v 0.4 0.5 -0.1
v -1.49012e-08 0.5 -0.2
v 0.1 0.5 -0.2
v 0.2 0.5 -0.2
v 0.3 0.5 -0.2
v 0.4 0.5 -0.2
v 0.2 0.5 -0.3
v 0.3 0.5 -0.3
v 0.4 0.5 -0.3
v 0.3 0.5 -0.4
v 0.4 0.5 -0.4
v -0.1 0.6 0.4
v -1.49012e-08 0.6 0.4
v 0.1 0.6 0.4
v 0.2 0.6 0.4
v -1.49012e-08 0.6 0.2
v 0.1 0.6 0.2
v -0.1 0.6 0.1
v 0.1 0.6 0.1
v 0.2 0.6 0.1
v 0.2 0.6 -0.1
v 0.3 0.6 -0.1
v 0.2 0.6 -0.2
v 0.3 0.6 -0.2
v 0.4 0.6 -0.2
v 0.5 0.6 -0.2
v 0.1 0.6 -0.3
v 0.2 0.6 -0.3
v 0.4 0.6 -0.3
v 0.5 0.6 -0.3
v 0.4 0.6 -0.4
v 0.5 0.6 -0.4

# faces
f 4/2/1 2/2/1 1/2/1
f 4/1/1 3/1/1 2/1/1
f 5/1/1 3/1/1 4/1/1
f 6/2/1 4/2/1 1/2/1
f 7/2/1 4/2/1 6/2/1
f 10/3/1 9/3/1 8/3/1
f 11/3/1 9/3/1 10/3/1
f 13/1/1 12/1/1 11/1/1
f 14/1/1 12/1/1 13/1/1
f 19/3/1 16/3/1 15/3/1
f 20/3/1 16/3/1 19/3/1
f 22/2/1 18/2/1 17/2/1
f 25/3/1 16/3/1 20/3/1
f 26/2/1 22/2/1 21/2/1
f 27/2/1 18/2/1 22/2/1
f 27/2/1 22/2/1 26/2/1
f 28/3/1 24/3/1 23/3/1
f 28/3/1 25/3/1 24/3/1
f 29/3/1 16/3/1 25/3/1
f 29/3/1 25/3/1 28/3/1
f 32/3/1 31/3/1 30/3/1
f 33/3/1 31/3/1 32/3/1
f 37/2/1 35/2/1 34/2/1
f 38/3/1 36/3/1 35/3/1
f 38/2/1 35/2/1 37/2/1
f 39/3/1 36/3/1 38/3/1
f 43/2/1 41/2/1 40/2/1
f 44/3/1 42/3/1 41/3/1
f 44/2/1 41/2/1 43/2/1
f 45/3/1 42/3/1 44/3/1
f 46/2/2 47/2/2 48/2/2
f 48/2/2 47/2/2 49/2/2
f 50/3/2 51/3/2 52/3/2
f 52/3/2 51/3/2 53/3/2
f 54/3/2 55/3/2 59/3/2
f 59/3/2 55/3/2 60/3/2
f 56/2/2 57/2/2 62/2/2
f 57/3/2 58/3/2 63/3/2
f 61/2/2 62/2/2 67/2/2
f 62/2/2 57/2/2 68/2/2
f 67/2/2 62/2/2 68/2/2
f 57/3/2 63/3/2 68/3/2
f 63/3/2 64/3/2 68/3/2
f 68/3/2 64/3/2 69/3/2
f 65/3/2 66/3/2 70/3/2
f 70/3/2 66/3/2 71/3/2
f 72/3/2 73/3/2 75/3/2
f 75/3/2 73/3/2 76/3/2
f 74/3/2 75/3/2 77/3/2
f 77/3/2 75/3/2 78/3/2
f 78/3/2 79/3/2 80/3/2
f 80/3/2 79/3/2 81/3/2
f 82/2/2 83/2/2 84/2/2
f 84/2/2 83/2/2 85/2/2
f 86/2/2 87/2/2 89/2/2
f 87/3/2 88/3/2 90/3/2
f 89/2/2 87/2/2 90/2/2
f 90/3/2 88/3/2 91/3/2
f 94/2/3 93/2/3 92/2/3
f 95/2/3 93/2/3 94/2/3
f 98/2/3 97/2/3 96/2/3
f 99/2/3 97/2/3 98/2/3
f 102/2/3 101/2/3 100/2/3
f 103/2/3 101/2/3 102/2/3
f 106/2/3 105/2/3 104/2/3
f 107/2/3 105/2/3 106/2/3
f 110/3/3 109/3/3 108/3/3
f 111/3/3 109/3/3 110/3/3
f 114/3/3 113/3/3 112/3/3
f 115/3/3 113/3/3 114/3/3
f 120/3/3 117/3/3 116/3/3
f 121/3/3 117/3/3 120/3/3
f 122/3/3 119/3/3 118/3/3
f 123/3/3 119/3/3 122/3/3
f 124/2/3 122/2/3 121/2/3
f 125/2/3 122/2/3 124/2/3
f 130/2/3 127/2/3 126/2/3
f 130/2/3 129/2/3 128/2/3
f 130/2/3 128/2/3 127/2/3
f 131/2/3 129/2/3 130/2/3
f 132/2/4 133/2/4 134/2/4
f 134/2/4 133/2/4 135/2/4
f 135/2/4 133/2/4 136/2/4
f 137/1/4 138/1/4 140/1/4
f 140/1/4 138/1/4 141/1/4
f 139/3/4 140/3/4 142/3/4
f 142/3/4 140/3/4 143/3/4
f 144/1/4 145/1/4 146/1/4
f 146/1/4 145/1/4 147/1/4
f 148/3/4 149/3/4 152/3/4
f 152/3/4 149/3/4 153/3/4
f 150/3/4 151/3/4 154/3/4
f 154/3/4 151/3/4 155/3/4
f 156/3/4 157/3/4 158/3/4
f 158/3/4 157/3/4 159/3/4
f 159/3/4 157/3/4 160/3/4
f 160/3/4 157/3/4 161/3/4
f 159/3/4 160/3/4 162/3/4
f 162/3/4 160/3/4 163/3/4
f 164/3/4 165/3/4 167/3/4
f 167/3/4 165/3/4 168/3/4
f 166/3/4 167/3/4 170/3/4
f 168/3/4 169/3/4 170/3/4
f 167/3/4 168/3/4 170/3/4
f 170/3/4 169/3/4 171/3/4
f 174/3/5 173/3/5 172/3/5
f 175/3/5 173/3/5 174/3/5
f 177/3/5 176/3/5 175/3/5
f 178/3/5 176/3/5 177/3/5
f 181/3/5 177/3/5 175/3/5
f 182/3/5 177/3/5 181/3/5
f 183/2/5 180/2/5 179/2/5
f 184/2/5 180/2/5 183/2/5
f 185/3/5 184/3/5 183/3/5
f 186/3/5 184/3/5 185/3/5
f 191/2/5 188/2/5 187/2/5
f 192/2/5 190/2/5 189/2/5
f 193/2/5 191/2/5 187/2/5
f 193/2/5 192/2/5 191/2/5
f 194/2/5 192/2/5 193/2/5
f 195/2/5 190/2/5 192/2/5
f 195/2/5 192/2/5 194/2/5
f 196/2/5 190/2/5 195/2/5
f 197/3/5 196/3/5 195/3/5
f 199/1/5 194/1/5 193/1/5
f 200/1/5 194/1/5 199/1/5
f 201/3/5 198/3/5 197/3/5
f 201/3/5 197/3/5 195/3/5
f 202/3/5 198/3/5 201/3/5
f 204/1/5 201/1/5 200/1/5
f 205/1/5 201/1/5 204/1/5
f 207/2/5 203/2/5 202/2/5
f 208/2/5 203/2/5 207/2/5
f 209/3/5 207/3/5 206/3/5
f 209/3/5 208/3/5 207/3/5
f 210/3/5 208/3/5 209/3/5
f 211/3/5 208/3/5 210/3/5
f 212/3/5 211/3/5 210/3/5
f 213/3/5 211/3/5 212/3/5
f 216/2/5 215/2/5 214/2/5
f 217/2/5 215/2/5 216/2/5
f 218/1/6 219/1/6 223/1/6
f 219/3/6 220/3/6 224/3/6
f 223/1/6 219/1/6 224/1/6
f 224/3/6 220/3/6 225/3/6
f 221/3/6 222/3/6 226/3/6
f 226/3/6 222/3/6 227/3/6
f 224/1/6 225/1/6 229/1/6
f 229/1/6 225/1/6 230/1/6
f 227/2/6 228/2/6 232/2/6
f 232/2/6 228/2/6 233/2/6
f 231/3/6 232/3/6 234/3/6
f 232/3/6 233/3/6 234/3/6
f 234/3/6 233/3/6 235/3/6
f 235/3/6 233/3/6 236/3/6
f 235/3/6 236/3/6 237/3/6
f 237/3/6 236/3/6 238/3/6
f 239/2/6 240/2/6 243/2/6
f 241/2/6 242/2/6 244/2/6
f 239/2/6 243/2/6 245/2/6
f 243/2/6 244/2/6 245/2/6
f 244/2/6 242/2/6 246/2/6
f 245/2/6 244/2/6 246/2/6
f 246/2/6 242/2/6 247/2/6
f 246/3/6 247/3/6 248/3/6
f 246/3/6 248/3/6 250/3/6
f 248/3/6 249/3/6 250/3/6
f 250/3/6 249/3/6 251/3/6
f 246/3/6 250/3/6 254/3/6
f 254/3/6 250/3/6 255/3/6
f 252/2/6 253/2/6 256/2/6
f 256/2/6 253/2/6 257/2/6
f 256/3/6 257/3/6 258/3/6
f 258/3/6 257/3/6 259/3/6
