# MagicaVoxel @ Ephtracy

# group
o 

# material
mtllib 210503 colorrobotv2-3.mtl
usemtl palette

# normals
vn -1 0 0
vn 1 0 0
vn 0 0 1
vn 0 0 -1
vn 0 -1 0
vn 0 1 0

# texcoords
vt 0.494141 0.5
vt 0.748047 0.5
vt 0.775391 0.5

# verts
v -0.4 0.3 -0.1
v -0.4 0.3 -0.2
v -0.4 0.4 0
v -0.4 0.4 -0.1
v -0.4 0.5 0
v -0.4 0.5 -0.1
v -0.4 0.6 -0.1
v -0.4 0.6 -0.2
v -0.3 0.2 0.2
v -0.3 0.2 -0.3
v -0.3 0.3 -0.1
v -0.3 0.3 -0.2
v -0.3 0.4 0
v -0.3 0.4 -0.1
v -0.3 0.5 0
v -0.3 0.5 -0.1
v -0.3 0.6 -0.1
v -0.3 0.6 -0.2
v -0.3 0.8 0.2
v -0.3 0.8 -0.3
v -0.2 0.1 0.2
v -0.2 0.1 -0.3
v -0.2 0.2 0.3
v -0.2 0.2 0.2
v -0.2 0.2 -0.3
v -0.2 0.2 -0.4
v -0.2 0.8 0.3
v -0.2 0.8 0.2
v -0.2 0.8 -0.3
v -0.2 0.8 -0.4
v -0.1 0.3 0.4
v -0.1 0.3 0.3
v -0.1 0.6 0.4
v -0.1 0.6 0.3
v -0.1 0.7 0
v -0.1 0.7 -0.2
v -0.1 0.8 0
v -0.1 0.8 -0.2
v 0 0.7 0.1
v 0 0.7 0
v 0 0.8 0.1
v 0 0.8 0
v 0.1 0.3 0.4
v 0.1 0.3 0.3
v 0.1 0.6 0.4
v 0.1 0.6 0.3
v 0.1 0.7 0
v 0.1 0.7 -0.1
v 0.1 0.8 0
v 0.1 0.8 -0.1
v 0.3 0.7 0.2
v 0.3 0.7 -0.3
v 0.3 0.8 0.2
v 0.3 0.8 -0.3
v -0.2 0.7 0.2
v -0.2 0.7 -0.3
v -0.2 0.8 0.2
v -0.2 0.8 -0.3
v 0 0.3 0.4
v 0 0.3 0.3
v 0 0.6 0.4
v 0 0.6 0.3
v 0 0.7 0
v 0 0.7 -0.1
v 0 0.8 0
v 0 0.8 -0.1
v 0.1 0.7 0.1
v 0.1 0.7 0
v 0.1 0.8 0.1
v 0.1 0.8 0
v 0.2 0.3 0.4
v 0.2 0.3 0.3
v 0.2 0.6 0.4
v 0.2 0.6 0.3
v 0.2 0.7 0
v 0.2 0.7 -0.2
v 0.2 0.8 0
v 0.2 0.8 -0.2
v 0.3 0.1 0.2
v 0.3 0.1 -0.3
v 0.3 0.2 0.3
v 0.3 0.2 0.2
v 0.3 0.2 -0.3
v 0.3 0.2 -0.4
v 0.3 0.8 0.3
v 0.3 0.8 0.2
v 0.3 0.8 -0.3
v 0.3 0.8 -0.4
v 0.4 0.2 0.2
v 0.4 0.2 -0.3
v 0.4 0.3 -0.1
v 0.4 0.3 -0.2
v 0.4 0.4 0
v 0.4 0.4 -0.1
v 0.4 0.5 0
v 0.4 0.5 -0.1
v 0.4 0.6 -0.1
v 0.4 0.6 -0.2
v 0.4 0.8 0.2
v 0.4 0.8 -0.3
v 0.5 0.3 -0.1
v 0.5 0.3 -0.2
v 0.5 0.4 0
v 0.5 0.4 -0.1
v 0.5 0.5 0
v 0.5 0.5 -0.1
v 0.5 0.6 -0.1
v 0.5 0.6 -0.2
v -0.1 0.3 0.4
v -0.1 0.6 0.4
v 0 0.3 0.4
v 0 0.6 0.4
v 0.1 0.3 0.4
v 0.1 0.6 0.4
v 0.2 0.3 0.4
v 0.2 0.6 0.4
v -0.2 0.2 0.3
v -0.2 0.8 0.3
v -0.1 0.3 0.3
v -0.1 0.6 0.3
v 0 0.3 0.3
v 0 0.6 0.3
v 0.1 0.3 0.3
v 0.1 0.6 0.3
v 0.2 0.3 0.3
v 0.2 0.6 0.3
v 0.3 0.2 0.3
v 0.3 0.8 0.3
v -0.3 0.2 0.2
v -0.3 0.8 0.2
v -0.2 0.1 0.2
v -0.2 0.2 0.2
v -0.2 0.8 0.2
v 0.3 0.1 0.2
v 0.3 0.2 0.2
v 0.3 0.8 0.2
v 0.4 0.2 0.2
v 0.4 0.8 0.2
v 0 0.7 0.1
v 0 0.8 0.1
v 0.1 0.7 0.1
v 0.1 0.8 0.1
v -0.4 0.4 0
v -0.4 0.5 0
v -0.3 0.4 0
v -0.3 0.5 0
v -0.1 0.7 0
v -0.1 0.8 0
v 0 0.7 0
v 0 0.8 0
v 0.1 0.7 0
v 0.1 0.8 0
v 0.2 0.7 0
v 0.2 0.8 0
v 0.4 0.4 0
v 0.4 0.5 0
v 0.5 0.4 0
v 0.5 0.5 0
v -0.4 0.3 -0.1
v -0.4 0.4 -0.1
v -0.4 0.5 -0.1
v -0.4 0.6 -0.1
v -0.3 0.3 -0.1
v -0.3 0.4 -0.1
v -0.3 0.5 -0.1
v -0.3 0.6 -0.1
v 0 0.7 -0.1
v 0 0.8 -0.1
v 0.1 0.7 -0.1
v 0.1 0.8 -0.1
v 0.4 0.3 -0.1
v 0.4 0.4 -0.1
v 0.4 0.5 -0.1
v 0.4 0.6 -0.1
v 0.5 0.3 -0.1
v 0.5 0.4 -0.1
v 0.5 0.5 -0.1
v 0.5 0.6 -0.1
v -0.2 0.7 -0.3
v -0.2 0.8 -0.3
v 0.3 0.7 -0.3
v 0.3 0.8 -0.3
v -0.2 0.7 0.2
v -0.2 0.8 0.2
v 0.3 0.7 0.2
v 0.3 0.8 0.2
v 0 0.7 0
v 0 0.8 0
v 0.1 0.7 0
v 0.1 0.8 0
v -0.4 0.3 -0.2
v -0.4 0.6 -0.2
v -0.3 0.3 -0.2
v -0.3 0.6 -0.2
v -0.1 0.7 -0.2
v -0.1 0.8 -0.2
v 0.2 0.7 -0.2
v 0.2 0.8 -0.2
v 0.4 0.3 -0.2
v 0.4 0.6 -0.2
v 0.5 0.3 -0.2
v 0.5 0.6 -0.2
v -0.3 0.2 -0.3
v -0.3 0.8 -0.3
v -0.2 0.1 -0.3
v -0.2 0.2 -0.3
v -0.2 0.8 -0.3
v 0.3 0.1 -0.3
v 0.3 0.2 -0.3
v 0.3 0.8 -0.3
v 0.4 0.2 -0.3
v 0.4 0.8 -0.3
v -0.2 0.2 -0.4
v -0.2 0.8 -0.4
v 0.3 0.2 -0.4
v 0.3 0.8 -0.4
v -0.2 0.1 0.2
v 0.3 0.1 0.2
v -0.2 0.1 -0.3
v 0.3 0.1 -0.3
v -0.2 0.2 0.3
v 0.3 0.2 0.3
v -0.3 0.2 0.2
v -0.2 0.2 0.2
v 0.3 0.2 0.2
v 0.4 0.2 0.2
v -0.3 0.2 -0.3
v -0.2 0.2 -0.3
v 0.3 0.2 -0.3
v 0.4 0.2 -0.3
v -0.2 0.2 -0.4
v 0.3 0.2 -0.4
v -0.1 0.3 0.4
v 0 0.3 0.4
v 0.1 0.3 0.4
v 0.2 0.3 0.4
v -0.1 0.3 0.3
v 0 0.3 0.3
v 0.1 0.3 0.3
v 0.2 0.3 0.3
v -0.4 0.3 -0.1
v -0.3 0.3 -0.1
v 0.4 0.3 -0.1
v 0.5 0.3 -0.1
v -0.4 0.3 -0.2
v -0.3 0.3 -0.2
v 0.4 0.3 -0.2
v 0.5 0.3 -0.2
v -0.4 0.4 0
v -0.3 0.4 0
v 0.4 0.4 0
v 0.5 0.4 0
v -0.4 0.4 -0.1
v -0.3 0.4 -0.1
v 0.4 0.4 -0.1
v 0.5 0.4 -0.1
v -0.4 0.5 0
v -0.3 0.5 0
v 0.4 0.5 0
v 0.5 0.5 0
v -0.4 0.5 -0.1
v -0.3 0.5 -0.1
v 0.4 0.5 -0.1
v 0.5 0.5 -0.1
v -0.1 0.6 0.4
v 0 0.6 0.4
v 0.1 0.6 0.4
v 0.2 0.6 0.4
v -0.1 0.6 0.3
v 0 0.6 0.3
v 0.1 0.6 0.3
v 0.2 0.6 0.3
v -0.4 0.6 -0.1
v -0.3 0.6 -0.1
v 0.4 0.6 -0.1
v 0.5 0.6 -0.1
v -0.4 0.6 -0.2
v -0.3 0.6 -0.2
v 0.4 0.6 -0.2
v 0.5 0.6 -0.2
v -0.2 0.7 0.2
v 0.3 0.7 0.2
v 0 0.7 0.1
v 0.1 0.7 0.1
v -0.1 0.7 0
v 0 0.7 0
v 0.1 0.7 0
v 0.2 0.7 0
v 0 0.7 -0.1
v 0.1 0.7 -0.1
v -0.1 0.7 -0.2
v 0.2 0.7 -0.2
v -0.2 0.7 -0.3
v 0.3 0.7 -0.3
v -0.2 0.8 0.3
v 0.3 0.8 0.3
v -0.3 0.8 0.2
v -0.2 0.8 0.2
v 0.3 0.8 0.2
v 0.4 0.8 0.2
v 0 0.8 0.1
v 0.1 0.8 0.1
v -0.1 0.8 0
v 0 0.8 0
v 0.1 0.8 0
v 0.2 0.8 0
v 0 0.8 -0.1
v 0.1 0.8 -0.1
v -0.1 0.8 -0.2
v 0.2 0.8 -0.2
v -0.3 0.8 -0.3
v -0.2 0.8 -0.3
v 0.3 0.8 -0.3
v 0.4 0.8 -0.3
v -0.2 0.8 -0.4
v 0.3 0.8 -0.4

# faces
f 4/2/1 2/2/1 1/2/1
f 5/2/1 4/2/1 3/2/1
f 6/2/1 2/2/1 4/2/1
f 6/2/1 4/2/1 5/2/1
f 7/2/1 2/2/1 6/2/1
f 8/2/1 2/2/1 7/2/1
f 11/3/1 10/3/1 9/3/1
f 12/3/1 10/3/1 11/3/1
f 13/3/1 11/3/1 9/3/1
f 14/3/1 11/3/1 13/3/1
f 15/3/1 13/3/1 9/3/1
f 17/3/1 16/3/1 15/3/1
f 18/3/1 10/3/1 12/3/1
f 19/3/1 17/3/1 15/3/1
f 19/3/1 18/3/1 17/3/1
f 19/3/1 15/3/1 9/3/1
f 20/3/1 10/3/1 18/3/1
f 20/3/1 18/3/1 19/3/1
f 24/3/1 22/3/1 21/3/1
f 25/3/1 22/3/1 24/3/1
f 27/3/1 24/3/1 23/3/1
f 28/3/1 24/3/1 27/3/1
f 29/3/1 26/3/1 25/3/1
f 30/3/1 26/3/1 29/3/1
f 33/2/1 32/2/1 31/2/1
f 34/2/1 32/2/1 33/2/1
f 37/1/1 36/1/1 35/1/1
f 38/1/1 36/1/1 37/1/1
f 41/1/1 40/1/1 39/1/1
f 42/1/1 40/1/1 41/1/1
f 45/2/1 44/2/1 43/2/1
f 46/2/1 44/2/1 45/2/1
f 49/1/1 48/1/1 47/1/1
f 50/1/1 48/1/1 49/1/1
f 53/3/1 52/3/1 51/3/1
f 54/3/1 52/3/1 53/3/1
f 55/3/2 56/3/2 57/3/2
f 57/3/2 56/3/2 58/3/2
f 59/2/2 60/2/2 61/2/2
f 61/2/2 60/2/2 62/2/2
f 63/1/2 64/1/2 65/1/2
f 65/1/2 64/1/2 66/1/2
f 67/1/2 68/1/2 69/1/2
f 69/1/2 68/1/2 70/1/2
f 71/2/2 72/2/2 73/2/2
f 73/2/2 72/2/2 74/2/2
f 75/1/2 76/1/2 77/1/2
f 77/1/2 76/1/2 78/1/2
f 79/3/2 80/3/2 82/3/2
f 82/3/2 80/3/2 83/3/2
f 81/3/2 82/3/2 85/3/2
f 85/3/2 82/3/2 86/3/2
f 83/3/2 84/3/2 87/3/2
f 87/3/2 84/3/2 88/3/2
f 89/3/2 90/3/2 91/3/2
f 91/3/2 90/3/2 92/3/2
f 89/3/2 91/3/2 93/3/2
f 93/3/2 91/3/2 94/3/2
f 89/3/2 93/3/2 95/3/2
f 95/3/2 96/3/2 97/3/2
f 92/3/2 90/3/2 98/3/2
f 95/3/2 97/3/2 99/3/2
f 97/3/2 98/3/2 99/3/2
f 89/3/2 95/3/2 99/3/2
f 98/3/2 90/3/2 100/3/2
f 99/3/2 98/3/2 100/3/2
f 101/2/2 102/2/2 104/2/2
f 103/2/2 104/2/2 105/2/2
f 104/2/2 102/2/2 106/2/2
f 105/2/2 104/2/2 106/2/2
f 106/2/2 102/2/2 107/2/2
f 107/2/2 102/2/2 108/2/2
f 111/2/3 110/2/3 109/2/3
f 112/2/3 110/2/3 111/2/3
f 115/2/3 114/2/3 113/2/3
f 116/2/3 114/2/3 115/2/3
f 119/3/3 118/3/3 117/3/3
f 120/3/3 118/3/3 119/3/3
f 121/3/3 119/3/3 117/3/3
f 122/3/3 118/3/3 120/3/3
f 123/3/3 121/3/3 117/3/3
f 123/3/3 122/3/3 121/3/3
f 124/3/3 118/3/3 122/3/3
f 124/3/3 122/3/3 123/3/3
f 125/3/3 123/3/3 117/3/3
f 126/3/3 118/3/3 124/3/3
f 127/3/3 125/3/3 117/3/3
f 127/3/3 126/3/3 125/3/3
f 128/3/3 118/3/3 126/3/3
f 128/3/3 126/3/3 127/3/3
f 132/3/3 130/3/3 129/3/3
f 133/3/3 130/3/3 132/3/3
f 134/3/3 132/3/3 131/3/3
f 135/3/3 132/3/3 134/3/3
f 137/3/3 136/3/3 135/3/3
f 138/3/3 136/3/3 137/3/3
f 141/1/3 140/1/3 139/1/3
f 142/1/3 140/1/3 141/1/3
f 145/2/3 144/2/3 143/2/3
f 146/2/3 144/2/3 145/2/3
f 149/1/3 148/1/3 147/1/3
f 150/1/3 148/1/3 149/1/3
f 153/1/3 152/1/3 151/1/3
f 154/1/3 152/1/3 153/1/3
f 157/2/3 156/2/3 155/2/3
f 158/2/3 156/2/3 157/2/3
f 163/2/3 160/2/3 159/2/3
f 164/2/3 160/2/3 163/2/3
f 165/2/3 162/2/3 161/2/3
f 166/2/3 162/2/3 165/2/3
f 169/1/3 168/1/3 167/1/3
f 170/1/3 168/1/3 169/1/3
f 175/2/3 172/2/3 171/2/3
f 176/2/3 172/2/3 175/2/3
f 177/2/3 174/2/3 173/2/3
f 178/2/3 174/2/3 177/2/3
f 181/3/3 180/3/3 179/3/3
f 182/3/3 180/3/3 181/3/3
f 183/3/4 184/3/4 185/3/4
f 185/3/4 184/3/4 186/3/4
f 187/1/4 188/1/4 189/1/4
f 189/1/4 188/1/4 190/1/4
f 191/2/4 192/2/4 193/2/4
f 193/2/4 192/2/4 194/2/4
f 195/1/4 196/1/4 197/1/4
f 197/1/4 196/1/4 198/1/4
f 199/2/4 200/2/4 201/2/4
f 201/2/4 200/2/4 202/2/4
f 203/3/4 204/3/4 206/3/4
f 206/3/4 204/3/4 207/3/4
f 205/3/4 206/3/4 208/3/4
f 208/3/4 206/3/4 209/3/4
f 209/3/4 210/3/4 211/3/4
f 211/3/4 210/3/4 212/3/4
f 213/3/4 214/3/4 215/3/4
f 215/3/4 214/3/4 216/3/4
f 219/3/5 218/3/5 217/3/5
f 220/3/5 218/3/5 219/3/5
f 224/3/5 222/3/5 221/3/5
f 225/3/5 222/3/5 224/3/5
f 227/3/5 224/3/5 223/3/5
f 228/3/5 224/3/5 227/3/5
f 229/3/5 226/3/5 225/3/5
f 230/3/5 226/3/5 229/3/5
f 231/3/5 229/3/5 228/3/5
f 232/3/5 229/3/5 231/3/5
f 237/2/5 234/2/5 233/2/5
f 238/2/5 234/2/5 237/2/5
f 239/2/5 236/2/5 235/2/5
f 240/2/5 236/2/5 239/2/5
f 245/2/5 242/2/5 241/2/5
f 246/2/5 242/2/5 245/2/5
f 247/2/5 244/2/5 243/2/5
f 248/2/5 244/2/5 247/2/5
f 253/2/5 250/2/5 249/2/5
f 254/2/5 250/2/5 253/2/5
f 255/2/5 252/2/5 251/2/5
f 256/2/5 252/2/5 255/2/5
f 257/2/6 258/2/6 261/2/6
f 261/2/6 258/2/6 262/2/6
f 259/2/6 260/2/6 263/2/6
f 263/2/6 260/2/6 264/2/6
f 265/2/6 266/2/6 269/2/6
f 269/2/6 266/2/6 270/2/6
f 267/2/6 268/2/6 271/2/6
f 271/2/6 268/2/6 272/2/6
f 273/2/6 274/2/6 277/2/6
f 277/2/6 274/2/6 278/2/6
f 275/2/6 276/2/6 279/2/6
f 279/2/6 276/2/6 280/2/6
f 281/2/6 282/2/6 283/2/6
f 283/2/6 282/2/6 284/2/6
f 281/2/6 283/2/6 285/2/6
f 285/2/6 283/2/6 286/2/6
f 284/2/6 282/2/6 287/2/6
f 287/2/6 282/2/6 288/2/6
f 286/2/6 287/2/6 289/2/6
f 289/2/6 287/2/6 290/2/6
f 281/2/6 285/2/6 291/2/6
f 288/2/6 282/2/6 292/2/6
f 281/2/6 291/2/6 293/2/6
f 291/2/6 292/2/6 293/2/6
f 292/2/6 282/2/6 294/2/6
f 293/2/6 292/2/6 294/2/6
f 295/3/6 296/3/6 298/3/6
f 298/3/6 296/3/6 299/3/6
f 301/1/6 302/1/6 304/1/6
f 304/1/6 302/1/6 305/1/6
f 303/1/6 304/1/6 307/1/6
f 305/1/6 306/1/6 308/1/6
f 303/1/6 307/1/6 309/1/6
f 307/1/6 308/1/6 309/1/6
f 308/1/6 306/1/6 310/1/6
f 309/1/6 308/1/6 310/1/6
f 297/3/6 298/3/6 311/3/6
f 311/3/6 298/3/6 312/3/6
f 299/3/6 300/3/6 313/3/6
f 313/3/6 300/3/6 314/3/6
f 312/3/6 313/3/6 315/3/6
f 315/3/6 313/3/6 316/3/6
