# MagicaVoxel @ Ephtracy

# group
o 

# material
mtllib 210503berobotv2-4.mtl
usemtl palette

# normals
vn -1 0 0
vn 1 0 0
vn 0 0 1
vn 0 0 -1
vn 0 -1 0
vn 0 1 0

# texcoords
vt 0.0292969 0.5
vt 0.494141 0.5
vt 0.748047 0.5
vt 0.775391 0.5

# verts
v -0.4 0.3 0
v -0.4 0.3 -0.1
v -0.4 0.4 0.1
v -0.4 0.4 0
v -0.4 0.4 -0.1
v -0.4 0.4 -0.2
v -0.4 0.5 0.1
v -0.4 0.5 0
v -0.4 0.5 -0.1
v -0.4 0.5 -0.2
v -0.4 0.6 0
v -0.4 0.6 -0.1
v -0.3 0.1 0.1
v -0.3 0.1 -0.3
v -0.3 0.2 0.2
v -0.3 0.2 0.1
v -0.3 0.2 -0.3
v -0.3 0.2 -0.4
v -0.3 0.3 0
v -0.3 0.3 -0.1
v -0.3 0.4 0.1
v -0.3 0.4 0
v -0.3 0.4 -0.1
v -0.3 0.4 -0.2
v -0.3 0.5 0.1
v -0.3 0.5 0
v -0.3 0.5 -0.1
v -0.3 0.5 -0.2
v -0.3 0.6 0
v -0.3 0.6 -0.1
v -0.3 0.7 0.2
v -0.3 0.7 0.1
v -0.3 0.7 -0.3
v -0.3 0.7 -0.4
v -0.3 0.8 0.1
v -0.3 0.8 -0.3
v -0.2 0.1 0.2
v -0.2 0.1 0.1
v -0.2 0.1 -0.3
v -0.2 0.1 -0.4
v -0.2 0.2 0.3
v -0.2 0.2 0.2
v -0.2 0.2 0.1
v -0.2 0.2 -0.3
v -0.2 0.2 -0.4
v -0.2 0.4 -0.4
v -0.2 0.4 -0.6
v -0.2 0.5 -0.4
v -0.2 0.5 -0.6
v -0.2 0.7 0.3
v -0.2 0.7 0.2
v -0.2 0.7 -0.3
v -0.2 0.7 -0.4
v -0.2 0.8 -0.3
v -0.2 0.8 -0.4
v -0.1 0.3 0.4
v -0.1 0.3 0.3
v -0.1 0.6 0.4
v -0.1 0.6 0.3
v -0.1 0.7 0
v -0.1 0.7 -0.2
v -0.1 0.8 0
v -0.1 0.8 -0.2
v -0.1 0.9 0
v -0.1 0.9 -0.2
v 0.1 0.7 0
v 0.1 0.7 -0.2
v 0.1 0.8 0
v 0.1 0.8 -0.2
v 0.1 0.9 0
v 0.1 0.9 -0.2
v 0.2 0.4 -0.4
v 0.2 0.4 -0.6
v 0.2 0.5 -0.4
v 0.2 0.5 -0.6
v 0.3 0.7 0.1
v 0.3 0.7 -0.3
v 0.3 0.8 0.1
v 0.3 0.8 -0.3
v -0.2 0.7 0.1
v -0.2 0.7 -0.3
v -0.2 0.8 0.1
v -0.2 0.8 -0.3
v -0.1 0.4 -0.4
v -0.1 0.4 -0.6
v -0.1 0.5 -0.4
v -0.1 0.5 -0.6
v 0 0.7 0
v 0 0.7 -0.2
v 0 0.8 0
v 0 0.8 -0.2
v 0 0.9 0
v 0 0.9 -0.2
v 0.2 0.3 0.4
v 0.2 0.3 0.3
v 0.2 0.6 0.4
v 0.2 0.6 0.3
v 0.2 0.7 0
v 0.2 0.7 -0.2
v 0.2 0.8 0
v 0.2 0.8 -0.2
v 0.2 0.9 0
v 0.2 0.9 -0.2
v 0.3 0.1 0.2
v 0.3 0.1 0.1
v 0.3 0.1 -0.3
v 0.3 0.1 -0.4
v 0.3 0.2 0.3
v 0.3 0.2 0.2
v 0.3 0.2 0.1
v 0.3 0.2 -0.3
v 0.3 0.2 -0.4
v 0.3 0.4 -0.4
v 0.3 0.4 -0.6
v 0.3 0.5 -0.4
v 0.3 0.5 -0.6
v 0.3 0.7 0.3
v 0.3 0.7 0.2
v 0.3 0.7 -0.3
v 0.3 0.7 -0.4
v 0.3 0.8 -0.3
v 0.3 0.8 -0.4
v 0.4 0.1 0.1
v 0.4 0.1 -0.3
v 0.4 0.2 0.2
v 0.4 0.2 0.1
v 0.4 0.2 -0.3
v 0.4 0.2 -0.4
v 0.4 0.3 0
v 0.4 0.3 -0.1
v 0.4 0.4 0.1
v 0.4 0.4 0
v 0.4 0.4 -0.1
v 0.4 0.4 -0.2
v 0.4 0.5 0.1
v 0.4 0.5 0
v 0.4 0.5 -0.1
v 0.4 0.5 -0.2
v 0.4 0.6 0
v 0.4 0.6 -0.1
v 0.4 0.7 0.2
v 0.4 0.7 0.1
v 0.4 0.7 -0.3
v 0.4 0.7 -0.4
v 0.4 0.8 0.1
v 0.4 0.8 -0.3
v 0.5 0.3 0
v 0.5 0.3 -0.1
v 0.5 0.4 0.1
v 0.5 0.4 0
v 0.5 0.4 -0.1
v 0.5 0.4 -0.2
v 0.5 0.5 0.1
v 0.5 0.5 0
v 0.5 0.5 -0.1
v 0.5 0.5 -0.2
v 0.5 0.6 0
v 0.5 0.6 -0.1
v -0.1 0.3 0.4
v -0.1 0.6 0.4
v 0.2 0.3 0.4
v 0.2 0.6 0.4
v -0.2 0.2 0.3
v -0.2 0.7 0.3
v -0.1 0.3 0.3
v -0.1 0.6 0.3
v 0.2 0.3 0.3
v 0.2 0.6 0.3
v 0.3 0.2 0.3
v 0.3 0.7 0.3
v -0.3 0.2 0.2
v -0.3 0.7 0.2
v -0.2 0.1 0.2
v -0.2 0.2 0.2
v -0.2 0.7 0.2
v 0.3 0.1 0.2
v 0.3 0.2 0.2
v 0.3 0.7 0.2
v 0.4 0.2 0.2
v 0.4 0.7 0.2
v -0.4 0.4 0.1
v -0.4 0.5 0.1
v -0.3 0.1 0.1
v -0.3 0.2 0.1
v -0.3 0.4 0.1
v -0.3 0.5 0.1
v -0.3 0.7 0.1
v -0.3 0.8 0.1
v -0.2 0.1 0.1
v -0.2 0.2 0.1
v -0.2 0.7 0.1
v -0.2 0.8 0.1
v 0.3 0.1 0.1
v 0.3 0.2 0.1
v 0.3 0.7 0.1
v 0.3 0.8 0.1
v 0.4 0.1 0.1
v 0.4 0.2 0.1
v 0.4 0.4 0.1
v 0.4 0.5 0.1
v 0.4 0.7 0.1
v 0.4 0.8 0.1
v 0.5 0.4 0.1
v 0.5 0.5 0.1
v -0.4 0.3 0
v -0.4 0.4 0
v -0.4 0.5 0
v -0.4 0.6 0
v -0.3 0.3 0
v -0.3 0.4 0
v -0.3 0.5 0
v -0.3 0.6 0
v -0.1 0.7 0
v -0.1 0.8 0
v -0.1 0.9 0
v 0 0.7 0
v 0 0.8 0
v 0 0.9 0
v 0.1 0.7 0
v 0.1 0.8 0
v 0.1 0.9 0
v 0.2 0.7 0
v 0.2 0.8 0
v 0.2 0.9 0
v 0.4 0.3 0
v 0.4 0.4 0
v 0.4 0.5 0
v 0.4 0.6 0
v 0.5 0.3 0
v 0.5 0.4 0
v 0.5 0.5 0
v 0.5 0.6 0
v -0.2 0.7 -0.3
v -0.2 0.8 -0.3
v 0.3 0.7 -0.3
v 0.3 0.8 -0.3
v -0.4 0.3 -0.1
v -0.4 0.4 -0.1
v -0.4 0.5 -0.1
v -0.4 0.6 -0.1
v -0.3 0.3 -0.1
v -0.3 0.4 -0.1
v -0.3 0.5 -0.1
v -0.3 0.6 -0.1
v 0.4 0.3 -0.1
v 0.4 0.4 -0.1
v 0.4 0.5 -0.1
v 0.4 0.6 -0.1
v 0.5 0.3 -0.1
v 0.5 0.4 -0.1
v 0.5 0.5 -0.1
v 0.5 0.6 -0.1
v -0.4 0.4 -0.2
v -0.4 0.5 -0.2
v -0.3 0.4 -0.2
v -0.3 0.5 -0.2
v -0.1 0.7 -0.2
v -0.1 0.8 -0.2
v -0.1 0.9 -0.2
v 0 0.7 -0.2
v 0 0.8 -0.2
v 0 0.9 -0.2
v 0.1 0.7 -0.2
v 0.1 0.8 -0.2
v 0.1 0.9 -0.2
v 0.2 0.7 -0.2
v 0.2 0.8 -0.2
v 0.2 0.9 -0.2
v 0.4 0.4 -0.2
v 0.4 0.5 -0.2
v 0.5 0.4 -0.2
v 0.5 0.5 -0.2
v -0.3 0.1 -0.3
v -0.3 0.2 -0.3
v -0.3 0.7 -0.3
v -0.3 0.8 -0.3
v -0.2 0.1 -0.3
v -0.2 0.2 -0.3
v -0.2 0.7 -0.3
v -0.2 0.8 -0.3
v 0.3 0.1 -0.3
v 0.3 0.2 -0.3
v 0.3 0.7 -0.3
v 0.3 0.8 -0.3
v 0.4 0.1 -0.3
v 0.4 0.2 -0.3
v 0.4 0.7 -0.3
v 0.4 0.8 -0.3
v -0.3 0.2 -0.4
v -0.3 0.7 -0.4
v -0.2 0.1 -0.4
v -0.2 0.2 -0.4
v -0.2 0.4 -0.4
v -0.2 0.5 -0.4
v -0.2 0.7 -0.4
v -0.2 0.8 -0.4
v -0.1 0.4 -0.4
v -0.1 0.5 -0.4
v 0.2 0.4 -0.4
v 0.2 0.5 -0.4
v 0.3 0.1 -0.4
v 0.3 0.2 -0.4
v 0.3 0.4 -0.4
v 0.3 0.5 -0.4
v 0.3 0.7 -0.4
v 0.3 0.8 -0.4
v 0.4 0.2 -0.4
v 0.4 0.7 -0.4
v -0.2 0.4 -0.6
v -0.2 0.5 -0.6
v -0.1 0.4 -0.6
v -0.1 0.5 -0.6
v 0.2 0.4 -0.6
v 0.2 0.5 -0.6
v 0.3 0.4 -0.6
v 0.3 0.5 -0.6
v -0.2 0.1 0.2
v 0.3 0.1 0.2
v -0.3 0.1 0.1
v -0.2 0.1 0.1
v 0.3 0.1 0.1
v 0.4 0.1 0.1
v -0.3 0.1 -0.3
v -0.2 0.1 -0.3
v 0.3 0.1 -0.3
v 0.4 0.1 -0.3
v -0.2 0.1 -0.4
v 0.3 0.1 -0.4
v -0.2 0.2 0.3
v 0.3 0.2 0.3
v -0.3 0.2 0.2
v -0.2 0.2 0.2
v 0.3 0.2 0.2
v 0.4 0.2 0.2
v -0.3 0.2 0.1
v -0.2 0.2 0.1
v 0.3 0.2 0.1
v 0.4 0.2 0.1
v -0.3 0.2 -0.3
v -0.2 0.2 -0.3
v 0.3 0.2 -0.3
v 0.4 0.2 -0.3
v -0.3 0.2 -0.4
v -0.2 0.2 -0.4
v 0.3 0.2 -0.4
v 0.4 0.2 -0.4
v -0.1 0.3 0.4
v 0.2 0.3 0.4
v -0.1 0.3 0.3
v 0.2 0.3 0.3
v -0.4 0.3 0
v -0.3 0.3 0
v 0.4 0.3 0
v 0.5 0.3 0
v -0.4 0.3 -0.1
v -0.3 0.3 -0.1
v 0.4 0.3 -0.1
v 0.5 0.3 -0.1
v -0.4 0.4 0.1
v -0.3 0.4 0.1
v 0.4 0.4 0.1
v 0.5 0.4 0.1
v -0.4 0.4 0
v -0.3 0.4 0
v 0.4 0.4 0
v 0.5 0.4 0
v -0.4 0.4 -0.1
v -0.3 0.4 -0.1
v 0.4 0.4 -0.1
v 0.5 0.4 -0.1
v -0.4 0.4 -0.2
v -0.3 0.4 -0.2
v 0.4 0.4 -0.2
v 0.5 0.4 -0.2
v -0.2 0.4 -0.4
v -0.1 0.4 -0.4
v 0.2 0.4 -0.4
v 0.3 0.4 -0.4
v -0.2 0.4 -0.6
v -0.1 0.4 -0.6
v 0.2 0.4 -0.6
v 0.3 0.4 -0.6
v -0.4 0.5 0.1
v -0.3 0.5 0.1
v 0.4 0.5 0.1
v 0.5 0.5 0.1
v -0.4 0.5 0
v -0.3 0.5 0
v 0.4 0.5 0
v 0.5 0.5 0
v -0.4 0.5 -0.1
v -0.3 0.5 -0.1
v 0.4 0.5 -0.1
v 0.5 0.5 -0.1
v -0.4 0.5 -0.2
v -0.3 0.5 -0.2
v 0.4 0.5 -0.2
v 0.5 0.5 -0.2
v -0.2 0.5 -0.4
v -0.1 0.5 -0.4
v 0.2 0.5 -0.4
v 0.3 0.5 -0.4
v -0.2 0.5 -0.6
v -0.1 0.5 -0.6
v 0.2 0.5 -0.6
v 0.3 0.5 -0.6
v -0.1 0.6 0.4
v 0.2 0.6 0.4
v -0.1 0.6 0.3
v 0.2 0.6 0.3
v -0.4 0.6 0
v -0.3 0.6 0
v 0.4 0.6 0
v 0.5 0.6 0
v -0.4 0.6 -0.1
v -0.3 0.6 -0.1
v 0.4 0.6 -0.1
v 0.5 0.6 -0.1
v -0.2 0.7 0.3
v 0.3 0.7 0.3
v -0.3 0.7 0.2
v -0.2 0.7 0.2
v 0.3 0.7 0.2
v 0.4 0.7 0.2
v -0.3 0.7 0.1
v -0.2 0.7 0.1
v 0.3 0.7 0.1
v 0.4 0.7 0.1
v -0.1 0.7 0
v 0 0.7 0
v 0.1 0.7 0
v 0.2 0.7 0
v -0.1 0.7 -0.2
v 0 0.7 -0.2
v 0.1 0.7 -0.2
v 0.2 0.7 -0.2
v -0.3 0.7 -0.3
v -0.2 0.7 -0.3
v 0.3 0.7 -0.3
v 0.4 0.7 -0.3
v -0.3 0.7 -0.4
v -0.2 0.7 -0.4
v 0.3 0.7 -0.4
v 0.4 0.7 -0.4
v -0.3 0.8 0.1
v -0.2 0.8 0.1
v 0.3 0.8 0.1
v 0.4 0.8 0.1
v -0.3 0.8 -0.3
v -0.2 0.8 -0.3
v 0.3 0.8 -0.3
v 0.4 0.8 -0.3
v -0.2 0.8 -0.4
v 0.3 0.8 -0.4
v -0.1 0.9 0
v 0 0.9 0
v 0.1 0.9 0
v 0.2 0.9 0
v -0.1 0.9 -0.2
v 0 0.9 -0.2
v 0.1 0.9 -0.2
v 0.2 0.9 -0.2

# faces
f 4/3/1 2/3/1 1/3/1
f 5/3/1 2/3/1 4/3/1
f 7/3/1 4/3/1 3/3/1
f 7/3/1 6/3/1 5/3/1
f 7/3/1 5/3/1 4/3/1
f 8/3/1 6/3/1 7/3/1
f 9/3/1 6/3/1 8/3/1
f 10/3/1 6/3/1 9/3/1
f 11/3/1 9/3/1 8/3/1
f 12/3/1 9/3/1 11/3/1
f 16/4/1 14/4/1 13/4/1
f 17/4/1 14/4/1 16/4/1
f 19/4/1 16/4/1 15/4/1
f 19/4/1 18/4/1 17/4/1
f 19/4/1 17/4/1 16/4/1
f 20/4/1 18/4/1 19/4/1
f 21/4/1 19/4/1 15/4/1
f 22/4/1 19/4/1 21/4/1
f 23/4/1 18/4/1 20/4/1
f 24/4/1 18/4/1 23/4/1
f 25/4/1 21/4/1 15/4/1
f 28/4/1 18/4/1 24/4/1
f 29/4/1 26/4/1 25/4/1
f 30/4/1 28/4/1 27/4/1
f 31/4/1 29/4/1 25/4/1
f 31/4/1 30/4/1 29/4/1
f 31/4/1 25/4/1 15/4/1
f 32/4/1 30/4/1 31/4/1
f 33/4/1 28/4/1 30/4/1
f 33/4/1 30/4/1 32/4/1
f 33/4/1 18/4/1 28/4/1
f 34/4/1 18/4/1 33/4/1
f 35/4/1 33/4/1 32/4/1
f 36/4/1 33/4/1 35/4/1
f 42/4/1 38/4/1 37/4/1
f 43/4/1 38/4/1 42/4/1
f 44/4/1 40/4/1 39/4/1
f 45/4/1 40/4/1 44/4/1
f 48/3/1 47/3/1 46/3/1
f 49/3/1 47/3/1 48/3/1
f 50/4/1 42/4/1 41/4/1
f 51/4/1 42/4/1 50/4/1
f 54/4/1 53/4/1 52/4/1
f 55/4/1 53/4/1 54/4/1
f 58/3/1 57/3/1 56/3/1
f 59/3/1 57/3/1 58/3/1
f 62/2/1 61/2/1 60/2/1
f 63/2/1 61/2/1 62/2/1
f 64/1/1 63/1/1 62/1/1
f 65/1/1 63/1/1 64/1/1
f 68/2/1 67/2/1 66/2/1
f 69/2/1 67/2/1 68/2/1
f 70/1/1 69/1/1 68/1/1
f 71/1/1 69/1/1 70/1/1
f 74/3/1 73/3/1 72/3/1
f 75/3/1 73/3/1 74/3/1
f 78/4/1 77/4/1 76/4/1
f 79/4/1 77/4/1 78/4/1
f 80/4/2 81/4/2 82/4/2
f 82/4/2 81/4/2 83/4/2
f 84/3/2 85/3/2 86/3/2
f 86/3/2 85/3/2 87/3/2
f 88/2/2 89/2/2 90/2/2
f 90/2/2 89/2/2 91/2/2
f 90/1/2 91/1/2 92/1/2
f 92/1/2 91/1/2 93/1/2
f 94/3/2 95/3/2 96/3/2
f 96/3/2 95/3/2 97/3/2
f 98/2/2 99/2/2 100/2/2
f 100/2/2 99/2/2 101/2/2
f 100/1/2 101/1/2 102/1/2
f 102/1/2 101/1/2 103/1/2
f 104/4/2 105/4/2 109/4/2
f 109/4/2 105/4/2 110/4/2
f 106/4/2 107/4/2 111/4/2
f 111/4/2 107/4/2 112/4/2
f 113/3/2 114/3/2 115/3/2
f 115/3/2 114/3/2 116/3/2
f 108/4/2 109/4/2 117/4/2
f 117/4/2 109/4/2 118/4/2
f 119/4/2 120/4/2 121/4/2
f 121/4/2 120/4/2 122/4/2
f 123/4/2 124/4/2 126/4/2
f 126/4/2 124/4/2 127/4/2
f 125/4/2 126/4/2 129/4/2
f 127/4/2 128/4/2 129/4/2
f 126/4/2 127/4/2 129/4/2
f 129/4/2 128/4/2 130/4/2
f 125/4/2 129/4/2 131/4/2
f 131/4/2 129/4/2 132/4/2
f 130/4/2 128/4/2 133/4/2
f 133/4/2 128/4/2 134/4/2
f 125/4/2 131/4/2 135/4/2
f 134/4/2 128/4/2 138/4/2
f 135/4/2 136/4/2 139/4/2
f 137/4/2 138/4/2 140/4/2
f 135/4/2 139/4/2 141/4/2
f 139/4/2 140/4/2 141/4/2
f 125/4/2 135/4/2 141/4/2
f 141/4/2 140/4/2 142/4/2
f 140/4/2 138/4/2 143/4/2
f 142/4/2 140/4/2 143/4/2
f 138/4/2 128/4/2 143/4/2
f 143/4/2 128/4/2 144/4/2
f 142/4/2 143/4/2 145/4/2
f 145/4/2 143/4/2 146/4/2
f 147/3/2 148/3/2 150/3/2
f 150/3/2 148/3/2 151/3/2
f 149/3/2 150/3/2 153/3/2
f 151/3/2 152/3/2 153/3/2
f 150/3/2 151/3/2 153/3/2
f 153/3/2 152/3/2 154/3/2
f 154/3/2 152/3/2 155/3/2
f 155/3/2 152/3/2 156/3/2
f 154/3/2 155/3/2 157/3/2
f 157/3/2 155/3/2 158/3/2
f 161/3/3 160/3/3 159/3/3
f 162/3/3 160/3/3 161/3/3
f 165/4/3 164/4/3 163/4/3
f 166/4/3 164/4/3 165/4/3
f 167/4/3 165/4/3 163/4/3
f 168/4/3 164/4/3 166/4/3
f 169/4/3 167/4/3 163/4/3
f 169/4/3 168/4/3 167/4/3
f 170/4/3 164/4/3 168/4/3
f 170/4/3 168/4/3 169/4/3
f 174/4/3 172/4/3 171/4/3
f 175/4/3 172/4/3 174/4/3
f 176/4/3 174/4/3 173/4/3
f 177/4/3 174/4/3 176/4/3
f 179/4/3 178/4/3 177/4/3
f 180/4/3 178/4/3 179/4/3
f 185/3/3 182/3/3 181/3/3
f 186/3/3 182/3/3 185/3/3
f 189/4/3 184/4/3 183/4/3
f 190/4/3 184/4/3 189/4/3
f 191/4/3 188/4/3 187/4/3
f 192/4/3 188/4/3 191/4/3
f 197/4/3 194/4/3 193/4/3
f 198/4/3 194/4/3 197/4/3
f 201/4/3 196/4/3 195/4/3
f 202/4/3 196/4/3 201/4/3
f 203/3/3 200/3/3 199/3/3
f 204/3/3 200/3/3 203/3/3
f 209/3/3 206/3/3 205/3/3
f 210/3/3 206/3/3 209/3/3
f 211/3/3 208/3/3 207/3/3
f 212/3/3 208/3/3 211/3/3
f 216/2/3 214/2/3 213/2/3
f 217/1/3 215/1/3 214/1/3
f 217/2/3 214/2/3 216/2/3
f 218/1/3 215/1/3 217/1/3
f 222/2/3 220/2/3 219/2/3
f 223/1/3 221/1/3 220/1/3
f 223/2/3 220/2/3 222/2/3
f 224/1/3 221/1/3 223/1/3
f 229/3/3 226/3/3 225/3/3
f 230/3/3 226/3/3 229/3/3
f 231/3/3 228/3/3 227/3/3
f 232/3/3 228/3/3 231/3/3
f 235/4/3 234/4/3 233/4/3
f 236/4/3 234/4/3 235/4/3
f 237/3/4 238/3/4 241/3/4
f 241/3/4 238/3/4 242/3/4
f 239/3/4 240/3/4 243/3/4
f 243/3/4 240/3/4 244/3/4
f 245/3/4 246/3/4 249/3/4
f 249/3/4 246/3/4 250/3/4
f 247/3/4 248/3/4 251/3/4
f 251/3/4 248/3/4 252/3/4
f 253/3/4 254/3/4 255/3/4
f 255/3/4 254/3/4 256/3/4
f 257/2/4 258/2/4 260/2/4
f 258/1/4 259/1/4 261/1/4
f 260/2/4 258/2/4 261/2/4
f 261/1/4 259/1/4 262/1/4
f 263/2/4 264/2/4 266/2/4
f 264/1/4 265/1/4 267/1/4
f 266/2/4 264/2/4 267/2/4
f 267/1/4 265/1/4 268/1/4
f 269/3/4 270/3/4 271/3/4
f 271/3/4 270/3/4 272/3/4
f 273/4/4 274/4/4 277/4/4
f 277/4/4 274/4/4 278/4/4
f 275/4/4 276/4/4 279/4/4
f 279/4/4 276/4/4 280/4/4
f 281/4/4 282/4/4 285/4/4
f 285/4/4 282/4/4 286/4/4
f 283/4/4 284/4/4 287/4/4
f 287/4/4 284/4/4 288/4/4
f 289/4/4 290/4/4 292/4/4
f 292/4/4 290/4/4 293/4/4
f 293/4/4 290/4/4 294/4/4
f 294/4/4 290/4/4 295/4/4
f 291/4/4 292/4/4 297/4/4
f 292/4/4 293/4/4 297/4/4
f 295/4/4 296/4/4 298/4/4
f 294/4/4 295/4/4 298/4/4
f 291/4/4 297/4/4 299/4/4
f 297/4/4 298/4/4 299/4/4
f 298/4/4 296/4/4 300/4/4
f 299/4/4 298/4/4 300/4/4
f 291/4/4 299/4/4 301/4/4
f 301/4/4 299/4/4 302/4/4
f 302/4/4 299/4/4 303/4/4
f 300/4/4 296/4/4 304/4/4
f 304/4/4 296/4/4 305/4/4
f 305/4/4 296/4/4 306/4/4
f 302/4/4 303/4/4 307/4/4
f 304/4/4 305/4/4 307/4/4
f 303/4/4 304/4/4 307/4/4
f 307/4/4 305/4/4 308/4/4
f 309/3/4 310/3/4 311/3/4
f 311/3/4 310/3/4 312/3/4
f 313/3/4 314/3/4 315/3/4
f 315/3/4 314/3/4 316/3/4
f 320/4/5 318/4/5 317/4/5
f 321/4/5 318/4/5 320/4/5
f 323/4/5 320/4/5 319/4/5
f 323/4/5 322/4/5 321/4/5
f 323/4/5 321/4/5 320/4/5
f 324/4/5 322/4/5 323/4/5
f 325/4/5 322/4/5 324/4/5
f 326/4/5 322/4/5 325/4/5
f 327/4/5 325/4/5 324/4/5
f 328/4/5 325/4/5 327/4/5
f 332/4/5 330/4/5 329/4/5
f 333/4/5 330/4/5 332/4/5
f 335/4/5 332/4/5 331/4/5
f 336/4/5 332/4/5 335/4/5
f 337/4/5 334/4/5 333/4/5
f 338/4/5 334/4/5 337/4/5
f 343/4/5 340/4/5 339/4/5
f 344/4/5 340/4/5 343/4/5
f 345/4/5 342/4/5 341/4/5
f 346/4/5 342/4/5 345/4/5
f 349/3/5 348/3/5 347/3/5
f 350/3/5 348/3/5 349/3/5
f 355/3/5 352/3/5 351/3/5
f 356/3/5 352/3/5 355/3/5
f 357/3/5 354/3/5 353/3/5
f 358/3/5 354/3/5 357/3/5
f 363/3/5 360/3/5 359/3/5
f 364/3/5 360/3/5 363/3/5
f 365/3/5 362/3/5 361/3/5
f 366/3/5 362/3/5 365/3/5
f 371/3/5 368/3/5 367/3/5
f 372/3/5 368/3/5 371/3/5
f 373/3/5 370/3/5 369/3/5
f 374/3/5 370/3/5 373/3/5
f 379/3/5 376/3/5 375/3/5
f 380/3/5 376/3/5 379/3/5
f 381/3/5 378/3/5 377/3/5
f 382/3/5 378/3/5 381/3/5
f 383/3/6 384/3/6 387/3/6
f 387/3/6 384/3/6 388/3/6
f 385/3/6 386/3/6 389/3/6
f 389/3/6 386/3/6 390/3/6
f 391/3/6 392/3/6 395/3/6
f 395/3/6 392/3/6 396/3/6
f 393/3/6 394/3/6 397/3/6
f 397/3/6 394/3/6 398/3/6
f 399/3/6 400/3/6 403/3/6
f 403/3/6 400/3/6 404/3/6
f 401/3/6 402/3/6 405/3/6
f 405/3/6 402/3/6 406/3/6
f 407/3/6 408/3/6 409/3/6
f 409/3/6 408/3/6 410/3/6
f 411/3/6 412/3/6 415/3/6
f 415/3/6 412/3/6 416/3/6
f 413/3/6 414/3/6 417/3/6
f 417/3/6 414/3/6 418/3/6
f 419/4/6 420/4/6 422/4/6
f 422/4/6 420/4/6 423/4/6
f 421/4/6 422/4/6 425/4/6
f 422/3/6 423/3/6 426/3/6
f 425/4/6 422/4/6 426/4/6
f 423/4/6 424/4/6 427/4/6
f 426/3/6 423/3/6 427/3/6
f 427/4/6 424/4/6 428/4/6
f 426/3/6 427/3/6 429/3/6
f 429/3/6 427/3/6 430/3/6
f 430/3/6 427/3/6 431/3/6
f 431/3/6 427/3/6 432/3/6
f 426/3/6 429/3/6 433/3/6
f 430/3/6 431/3/6 434/3/6
f 434/3/6 431/3/6 435/3/6
f 432/3/6 427/3/6 436/3/6
f 434/3/6 435/3/6 438/3/6
f 435/3/6 436/3/6 438/3/6
f 426/3/6 433/3/6 438/3/6
f 433/3/6 434/3/6 438/3/6
f 436/3/6 427/3/6 439/3/6
f 438/3/6 436/3/6 439/3/6
f 437/4/6 438/4/6 441/4/6
f 441/4/6 438/4/6 442/4/6
f 439/4/6 440/4/6 443/4/6
f 443/4/6 440/4/6 444/4/6
f 445/4/6 446/4/6 449/4/6
f 449/4/6 446/4/6 450/4/6
f 447/4/6 448/4/6 451/4/6
f 451/4/6 448/4/6 452/4/6
f 450/4/6 451/4/6 453/4/6
f 453/4/6 451/4/6 454/4/6
f 455/1/6 456/1/6 459/1/6
f 459/1/6 456/1/6 460/1/6
f 457/1/6 458/1/6 461/1/6
f 461/1/6 458/1/6 462/1/6
